<?xml version="1.0" encoding="UTF-8"?>
<svg id="OBJETCS" xmlns="http://www.w3.org/2000/svg" xmlns:xlink="http://www.w3.org/1999/xlink" viewBox="0 0 1200 720">
  <defs>
    <style>
      .cls-1 {
        fill: #b0d8a7;
      }

      .cls-2 {
        fill: #c3e2bc;
      }

      .cls-3 {
        filter: url(#drop-shadow-5);
      }

      .cls-3, .cls-4, .cls-5, .cls-6, .cls-7 {
        opacity: .4;
      }

      .cls-4 {
        filter: url(#drop-shadow-7);
      }

      .cls-8 {
        clip-path: url(#clippath);
      }

      .cls-9 {
        fill: none;
      }

      .cls-5 {
        filter: url(#drop-shadow-9);
      }

      .cls-10 {
        fill: #dbefd8;
      }

      .cls-6 {
        filter: url(#drop-shadow-1);
      }

      .cls-7 {
        filter: url(#drop-shadow-3);
      }
    </style>
    <clipPath id="clippath">
      <rect class="cls-9" x=".91" y="1.11" width="1199.09" height="718.89"/>
    </clipPath>
    <filter id="drop-shadow-1">
      <feOffset dx="7" dy="7"/>
      <feGaussianBlur result="blur" stdDeviation="5"/>
      <feFlood flood-color="#000" flood-opacity=".5"/>
      <feComposite in="blur" operator="in"/>
      <feComposite in="SourceGraphic"/>
    </filter>
    <filter id="drop-shadow-3" filterUnits="userSpaceOnUse">
      <feOffset dx="7" dy="7"/>
      <feGaussianBlur result="blur" stdDeviation="5"/>
      <feFlood flood-color="#000" flood-opacity=".3"/>
      <feComposite in2="blur" operator="in"/>
      <feComposite in="SourceGraphic"/>
    </filter>
    <filter id="drop-shadow-5" filterUnits="userSpaceOnUse">
      <feOffset dx="7" dy="7"/>
      <feGaussianBlur result="blur-2" stdDeviation="5"/>
      <feFlood flood-color="#000" flood-opacity=".3"/>
      <feComposite in2="blur-2" operator="in"/>
      <feComposite in="SourceGraphic"/>
    </filter>
    <filter id="drop-shadow-7" filterUnits="userSpaceOnUse">
      <feOffset dx="7" dy="7"/>
      <feGaussianBlur result="blur-3" stdDeviation="5"/>
      <feFlood flood-color="#000" flood-opacity=".3"/>
      <feComposite in2="blur-3" operator="in"/>
      <feComposite in="SourceGraphic"/>
    </filter>
    <filter id="drop-shadow-9" filterUnits="userSpaceOnUse">
      <feOffset dx="7" dy="7"/>
      <feGaussianBlur result="blur-4" stdDeviation="5"/>
      <feFlood flood-color="#000" flood-opacity=".3"/>
      <feComposite in2="blur-4" operator="in"/>
      <feComposite in="SourceGraphic"/>
    </filter>
  </defs>
  <rect class="cls-2" x=".91" width="1197.3" height="718.89"/>
  <g class="cls-8">
    <g>
      <g>
        <path class="cls-10" d="m-57.54,213.15L-21.95,499.94c14.53,4.91,27.33,13.37,38.66,24.03,16.39,15.41,29.68,35.35,40.6,55.59,15.33,28.43,28.71,60.04,54.4,78.41,31.67,22.62,77.01,21.05,103.12,50.47,20.37,22.94,22.1,56.8,20.9,88.76l161.53-22.23c.57-7.83.93-15.65,1-23.5.3-32.66-5.34-66.89-24.46-92.63-14.76-19.84-36.4-33.17-50.42-53.6-21.41-31.14-21.44-72.49-29.21-110.09-9.12-44.29-32.52-88.14-71.41-107.52-24.43-12.18-52.24-13.55-78.77-19.07-2.77-.57-5.51-1.2-8.27-1.88-17.28-4.16-34.16-10.24-50.3-18.01-1.42-.66-2.81-1.36-4.2-2.07-6.03-2.99-11.95-6.27-17.75-9.77-1.16-.66-2.32-1.36-3.45-2.1-1.88-1.15-3.74-2.36-5.61-3.57-.89-.61-1.77-1.19-2.66-1.8-8.01-5.37-15.72-11.18-23.11-17.44-.91-.76-1.81-1.53-2.69-2.29-12.77-11.05-24.57-23.38-35.16-36.76-3.37-4.28-6.65-8.68-9.86-13.09-12.02-16.43-23.51-33.33-38.48-46.63h0Z"/>
        <path class="cls-10" d="m317.5,567.11c-3.66-12.63-5.41-26.66-.38-38.75,1.85-4.44,6.04-9.03,10.37-7.39,2.42.92,3.9,3.59,4.34,6.25s.05,5.39-.16,8.09c-.91,11.5,1.53,23.27,6.93,33.32,3.03,5.65,7.02,10.87,8.68,17.12,3.86,14.45-7.77,17.04-16.02,8.13-6.78-7.32-10.95-17.11-13.75-26.78h0Z"/>
      </g>
      <path class="cls-10" d="m1480.12,219.58l-223.17,253.1c-4.98-5.12-10.13-9.97-15.45-14.49-42.42-35.93-94.64-55.89-144.47-78.83-26.49-12.2-53.4-26.06-71.9-49.45-27.47-34.81-31.06-83.22-36.89-128.09-10.32-79.04-33.09-159.9-85.71-217.27-14.31-15.59-30.53-28.68-47.89-38.69l92.44-104.84c10.23,1.42,20.32,4.26,30.25,8.67,48.35,21.49,72.4,78.25,87.33,131.2,14.96,52.99,27.13,110.6,65.28,148.5,58.58,58.32,150.49,46.35,230.73,54.92,41.28,4.4,82.47,15.74,119.45,35.25h0Z"/>
    </g>
  </g>
  <g>
    <g>
      <path class="cls-1" d="m54.39,549.34c-1.73,7.29-2.72,14.76-3.23,22.25-.52,7.51-.39,15.06.36,22.53,1.47,14.75,5.21,29.4,11.31,42.78,6.2,13.59,14.74,25.94,25.23,36.22,3.15,3.09,6.46,5.99,9.91,8.69,2.95,2.31,7.02,3.97,9.62,6.54.23.23.46.52.44.84-.03.38-.37.64-.7.81-2.34,1.17-5.12.24-7.45-.96-3.98-2.04-8.01-4.93-11.37-7.94-11.38-10.18-20.84-22.63-27.69-36.6-6.76-13.78-11.26-28.9-12.88-44.33-.8-7.66-.96-15.38-.44-23.07.26-3.84.67-7.68,1.25-11.48.58-3.82,1.54-7.57,2.52-11.31.48-1.81,1-3.62,1.56-5.41.32-1.02,1.81-.65,1.56.41v.02Z"/>
      <path class="cls-1" d="m50.86,566.63c4.9-5.09,6.77-12.49,8.44-19.51.55-2.33,1.11-4.74.73-7.11s-1.96-4.7-4.2-5.1c-1.63-.28-3.32.49-4.48,1.74-1.16,1.24-1.87,2.89-2.35,4.55-1.77,6.05-2.02,20.27,1.26,25.58"/>
    </g>
    <path class="cls-1" d="m47.07,579.18c-2.44-4.11-5.57-7.77-9.2-10.75-1.45-1.2-3.15-2.34-4.99-2.18-2.5.21-4.35,3-4.17,5.64s2,4.93,4.21,6.17c2.22,1.24,4.79,1.58,7.3,1.66s5.03-.09,7.53.22"/>
    <path class="cls-1" d="m49.8,586.48c3.07-6.8,6.65-13.35,10.7-19.58,1.39-2.14,3.15-4.43,5.6-4.62,2.54-.2,4.8,2.16,5.33,4.78s-.33,5.36-1.59,7.7c-3.96,7.38-12.21,11.95-20.23,11.19"/>
    <path class="cls-1" d="m47.87,600.97c-4.29-5.21-9.63-9.46-15.57-12.35-2.52-1.23-5.81-2.11-7.82-.08-1.19,1.2-1.51,3.15-1.09,4.83.42,1.68,1.47,3.12,2.68,4.31,3.07,3.03,7.19,4.66,11.35,5.37,4.16.69,8.39.53,12.6.36"/>
    <path class="cls-1" d="m55.87,622.32c.96-7.36,2.31-14.66,4.05-21.85.42-1.74,1.01-3.66,2.52-4.46,1.33-.71,3.01-.25,4.14.76,1.13,1.02,1.77,2.51,2.18,4.01,1.22,4.46.55,9.46-1.8,13.39-2.35,3.93-6.34,6.73-10.68,7.51"/>
    <path class="cls-1" d="m57.2,635.32c-5.95-3.13-11.89-6.27-17.84-9.39-1.33-.71-2.69-1.41-4.15-1.67-1.47-.27-3.09-.04-4.23.97-1.75,1.56-1.81,4.56-.62,6.61,1.19,2.06,3.31,3.33,5.46,4.18,6.95,2.73,15.49,3.42,21.65-.92"/>
    <path class="cls-1" d="m66.05,650.88l3.46-21.67c.35-2.16.77-4.5,2.31-5.97,1.84-1.77,4.89-1.68,6.9-.15,2.02,1.55,3.03,4.25,3.03,6.88s-.93,5.17-2.16,7.44c-3.01,5.53-8.03,9.81-13.79,11.76"/>
    <path class="cls-1" d="m70.61,658.87c-5.56-2.72-11.12-5.43-16.68-8.15-2.42-1.18-5.1-2.39-7.66-1.62-2.82.84-4.64,4.1-4.41,7.17.24,3.07,2.26,5.81,4.84,7.27s5.65,1.75,8.55,1.35c5.1-.72,9.77-3.46,13.74-6.91"/>
    <path class="cls-1" d="m85.54,671.81c-3.55-5.06-5.22-11.54-4.6-17.81.13-1.35.4-2.75,1.21-3.81,1.68-2.2,5.23-1.94,7.14.05,1.91,1.99,2.38,5.1,1.98,7.9-.4,2.79-1.55,5.4-2.48,8.04-.93,2.65-1.66,5.5-1.19,8.28"/>
    <path class="cls-1" d="m90.85,681.86c-4.16-3.06-8.92-5.22-13.9-6.28-2.3-.49-4.74-.74-6.97.04s-4.2,2.81-4.36,5.29c-.21,3.18,2.53,5.79,5.38,6.88,4.24,1.61,8.94,1,13.35-.03,4.4-1.03,8.79-2.45,13.3-2.43"/>
  </g>
  <g>
    <g>
      <path class="cls-1" d="m1144.82,568.01c.31,7.21-.12,14.46-1,21.62-.87,7.18-2.37,14.27-4.43,21.17-4.07,13.6-10.25,26.66-18.44,38.04-8.32,11.56-18.61,21.47-30.36,29.05-3.53,2.27-7.18,4.34-10.92,6.19-3.2,1.58-7.33,2.33-10.25,4.22-.26.17-.53.39-.57.71-.05.37.23.68.51.91,1.99,1.58,4.78,1.25,7.19.6,4.12-1.13,8.44-3.03,12.16-5.19,12.57-7.31,23.75-17.12,32.75-28.92,8.88-11.63,15.87-24.97,20.2-39.18,2.15-7.06,3.7-14.31,4.61-21.65.46-3.67.76-7.37.9-11.07.14-3.73-.07-7.44-.32-11.16-.12-1.81-.29-3.61-.49-5.41-.11-1.03-1.59-.98-1.55.07h.01Z"/>
      <path class="cls-1" d="m1145,585.02c-3.7-5.78-4.11-13.13-4.4-20.09-.1-2.31-.18-4.7.6-6.84.79-2.16,2.7-4.03,4.89-3.96,1.59.05,3.04,1.14,3.91,2.55s1.23,3.1,1.39,4.76c.57,6.07-1.78,19.51-5.84,23.85"/>
    </g>
    <path class="cls-1" d="m1146.3,597.61c3.05-3.38,6.67-6.2,10.63-8.28,1.59-.83,3.39-1.57,5.1-1.04,2.32.71,3.56,3.71,2.91,6.16-.65,2.45-2.78,4.24-5.09,4.97-2.32.73-4.8.53-7.18.09s-4.73-1.1-7.14-1.31"/>
    <path class="cls-1" d="m1142.39,603.94c-1.66-7.03-3.84-13.93-6.52-20.6-.92-2.3-2.16-4.81-4.44-5.49-2.36-.71-4.92,1.06-5.89,3.43s-.66,5.12.1,7.57c2.39,7.76,9.34,13.72,17.04,14.63"/>
    <path class="cls-1" d="m1141.58,617.97c4.99-4.04,10.79-6.97,16.92-8.51,2.6-.65,5.86-.81,7.38,1.5.91,1.37.85,3.27.15,4.78-.7,1.5-1.95,2.64-3.3,3.52-3.45,2.23-7.63,2.95-11.67,2.77s-8.01-1.19-11.94-2.21"/>
    <path class="cls-1" d="m1130.16,636.51c.43-7.13.48-14.28.16-21.41-.08-1.72-.28-3.65-1.57-4.72-1.12-.93-2.79-.85-4.04-.12s-2.13,2-2.79,3.34c-1.96,3.96-2.24,8.8-.74,12.98,1.5,4.18,4.75,7.62,8.7,9.23"/>
    <path class="cls-1" d="m1126.54,648.48c6.17-1.75,12.35-3.51,18.52-5.25,1.38-.39,2.79-.79,4.22-.75,1.43.04,2.92.58,3.81,1.77,1.37,1.82.88,4.65-.62,6.36s-3.73,2.47-5.91,2.83c-7.04,1.17-15.22.11-20.24-5.22"/>
    <path class="cls-1" d="m1115.37,661.36c.23-7.04.45-14.08.68-21.12.07-2.11.09-4.39-1.09-6.1-1.41-2.04-4.3-2.58-6.48-1.53-2.18,1.05-3.63,3.4-4.1,5.88-.47,2.47-.07,5.05.69,7.46,1.83,5.82,5.78,10.87,10.86,13.87"/>
    <path class="cls-1" d="m1109.62,667.97c5.73-1.44,11.47-2.87,17.2-4.32,2.49-.62,5.24-1.22,7.52.01,2.5,1.36,3.63,4.79,2.85,7.64s-3.18,5.02-5.88,5.87c-2.7.85-5.64.52-8.3-.45-4.67-1.7-8.58-5.23-11.69-9.28"/>
    <path class="cls-1" d="m1093.2,677.16c4.27-4.05,7.02-9.82,7.57-15.85.12-1.31.13-2.67-.44-3.83-1.18-2.41-4.58-2.87-6.74-1.39s-3.17,4.33-3.3,7.04.48,5.4.87,8.09c.4,2.69.57,5.52-.38,8.04"/>
    <path class="cls-1" d="m1086.37,685.57c4.48-2.05,9.36-3.12,14.24-3.12,2.26,0,4.6.26,6.56,1.44,1.96,1.19,3.45,3.5,3.15,5.85-.38,3.04-3.44,4.95-6.32,5.39-4.29.66-8.61-.86-12.57-2.72s-7.84-4.09-12.09-4.97"/>
  </g>
  <image class="cls-6" width="2000" height="2000" transform="translate(297.4 209.92) rotate(-41.53) scale(.08)" xlink:href="5x8 - happy easter1 - dark - photo.png"/>
  <image class="cls-7" width="2000" height="2000" transform="translate(427.73 554.83) rotate(-39.53) scale(.08)" xlink:href="5x8 - you are some bunny special - dark - photo.png"/>
  <image class="cls-3" width="864" height="864" transform="translate(911.46 154.44) rotate(15.54) scale(.15)" xlink:href="happy easter - medium horizontal.jpg"/>
  <image class="cls-4" width="864" height="864" transform="translate(122.86 430.63) rotate(-10.05) scale(.14)" xlink:href="happy easter2 -  medium horizontal lego.jpg"/>
  <image class="cls-5" width="2000" height="2000" transform="translate(695.8 297.19) rotate(13.49) scale(.06)" xlink:href="5x8 - my first easter - natural - photo.png"/>
</svg>