<?xml version="1.0" encoding="UTF-8"?>
<svg id="OBJETCS" xmlns="http://www.w3.org/2000/svg" xmlns:xlink="http://www.w3.org/1999/xlink" viewBox="0 0 1200 720">
  <defs>
    <style>
      .cls-1 {
        fill: #b0d8a7;
      }

      .cls-2 {
        fill: #c3e2bc;
      }

      .cls-3 {
        filter: url(#drop-shadow-1);
      }

      .cls-4 {
        filter: url(#drop-shadow-2);
      }

      .cls-5 {
        clip-path: url(#clippath);
      }

      .cls-6 {
        fill: none;
      }

      .cls-7 {
        fill: #dbefd8;
      }
    </style>
    <clipPath id="clippath">
      <rect class="cls-6" x=".91" y="21.43" width="1199.09" height="682.71"/>
    </clipPath>
    <filter id="drop-shadow-1" filterUnits="userSpaceOnUse">
      <feOffset dx="7" dy="7"/>
      <feGaussianBlur result="blur" stdDeviation="5"/>
      <feFlood flood-color="#000" flood-opacity=".5"/>
      <feComposite in2="blur" operator="in"/>
      <feComposite in="SourceGraphic"/>
    </filter>
    <filter id="drop-shadow-2" filterUnits="userSpaceOnUse">
      <feOffset dx="7" dy="7"/>
      <feGaussianBlur result="blur-2" stdDeviation="5"/>
      <feFlood flood-color="#000" flood-opacity=".5"/>
      <feComposite in2="blur-2" operator="in"/>
      <feComposite in="SourceGraphic"/>
    </filter>
  </defs>
  <rect class="cls-2" x=".91" y="20.38" width="1197.3" height="682.71"/>
  <g class="cls-5">
    <g>
      <path class="cls-7" d="m-57.54,222.8L-21.95,495.16c14.53,4.66,27.33,12.7,38.66,22.82,16.39,14.63,29.68,33.57,40.6,52.79,15.33,27,28.71,57.02,54.4,74.46,31.67,21.48,77.01,19.99,103.12,47.93,20.37,21.79,22.1,53.94,20.9,84.29l161.53-21.11c.57-7.44.93-14.86,1-22.32.3-31.02-5.34-63.52-24.46-87.97-14.76-18.84-36.4-31.5-50.42-50.9-21.41-29.57-21.44-68.84-29.21-104.55-9.12-42.06-32.52-83.7-71.41-102.11-24.43-11.57-52.24-12.87-78.77-18.11-2.77-.54-5.51-1.14-8.27-1.79-17.28-3.95-34.16-9.72-50.3-17.1-1.42-.63-2.81-1.29-4.2-1.97-6.03-2.84-11.95-5.95-17.75-9.28-1.16-.63-2.32-1.29-3.45-1.99-1.88-1.09-3.74-2.24-5.61-3.39-.89-.58-1.77-1.13-2.66-1.71-8.01-5.1-15.72-10.62-23.11-16.56-.91-.72-1.81-1.45-2.69-2.17-12.77-10.49-24.57-22.2-35.16-34.91-3.37-4.06-6.65-8.24-9.86-12.43-12.02-15.6-23.51-31.65-38.48-44.28Z"/>
      <path class="cls-7" d="m317.5,558.95c-3.66-11.99-5.41-25.32-.38-36.8,1.85-4.22,6.04-8.58,10.37-7.02,2.42.87,3.9,3.41,4.34,5.94.44,2.53.05,5.12-.16,7.68-.91,10.92,1.53,22.1,6.93,31.64,3.03,5.37,7.02,10.32,8.68,16.26,3.86,13.72-7.77,16.18-16.02,7.72-6.78-6.95-10.95-16.25-13.75-25.43Z"/>
    </g>
    <path class="cls-7" d="m1480.12,228.91l-223.17,240.36c-4.98-4.86-10.13-9.47-15.45-13.76-42.42-34.12-94.64-53.08-144.47-74.86-26.49-11.59-53.4-24.75-71.9-46.96-27.47-33.06-31.06-79.03-36.89-121.64-10.32-75.06-33.09-151.85-85.71-206.33-14.31-14.81-30.53-27.24-47.89-36.74l92.44-99.56c10.23,1.35,20.32,4.05,30.25,8.23,48.35,20.41,72.4,74.31,87.33,124.6,14.96,50.32,27.13,105.03,65.28,141.03,58.58,55.38,150.49,44.02,230.73,52.16,41.28,4.18,82.47,14.95,119.45,33.48Z"/>
  </g>
  <g class="cls-3">
    <g>
      <path class="cls-1" d="m54.39,542.07c-1.73,6.92-2.72,14.02-3.23,21.13-.52,7.13-.39,14.3.36,21.4,1.47,14.01,5.21,27.92,11.31,40.63,6.2,12.91,14.74,24.63,25.23,34.4,3.15,2.93,6.46,5.69,9.91,8.25,2.95,2.19,7.02,3.77,9.62,6.21.23.22.46.49.44.8-.03.36-.37.61-.7.77-2.34,1.11-5.12.23-7.45-.91-3.98-1.94-8.01-4.68-11.37-7.54-11.38-9.67-20.84-21.49-27.69-34.76-6.76-13.09-11.26-27.45-12.88-42.1-.8-7.27-.96-14.61-.44-21.91.26-3.65.67-7.29,1.25-10.9.58-3.63,1.54-7.19,2.52-10.74.48-1.72,1-3.44,1.56-5.14.32-.97,1.81-.62,1.56.39Z"/>
      <path class="cls-1" d="m50.86,558.49c4.9-4.83,6.77-11.86,8.44-18.53.55-2.21,1.11-4.5.73-6.75-.38-2.25-1.96-4.46-4.2-4.84-1.63-.27-3.32.47-4.48,1.65-1.16,1.18-1.87,2.74-2.35,4.32-1.77,5.75-2.02,19.25,1.26,24.29"/>
    </g>
    <path class="cls-1" d="m47.07,570.41c-2.44-3.9-5.57-7.38-9.2-10.21-1.45-1.14-3.15-2.22-4.99-2.07-2.5.2-4.35,2.85-4.17,5.36.18,2.51,2,4.68,4.21,5.86,2.22,1.18,4.79,1.5,7.3,1.58s5.03-.09,7.53.21"/>
    <path class="cls-1" d="m49.8,577.34c3.07-6.46,6.65-12.68,10.7-18.59,1.39-2.03,3.15-4.21,5.6-4.39,2.54-.19,4.8,2.05,5.33,4.54.53,2.49-.33,5.09-1.59,7.31-3.96,7.01-12.21,11.35-20.23,10.63"/>
    <path class="cls-1" d="m47.87,591.1c-4.29-4.95-9.63-8.98-15.57-11.73-2.52-1.17-5.81-2-7.82-.08-1.19,1.14-1.51,2.99-1.09,4.59.42,1.6,1.47,2.96,2.68,4.09,3.07,2.88,7.19,4.43,11.35,5.1,4.16.66,8.39.5,12.6.34"/>
    <path class="cls-1" d="m55.87,611.38c.96-6.99,2.31-13.92,4.05-20.75.42-1.65,1.01-3.48,2.52-4.24,1.33-.67,3.01-.24,4.14.72,1.13.97,1.77,2.38,2.18,3.81,1.22,4.24.55,8.98-1.8,12.72-2.35,3.73-6.34,6.39-10.68,7.13"/>
    <path class="cls-1" d="m57.2,623.72c-5.95-2.97-11.89-5.95-17.84-8.92-1.33-.67-2.69-1.34-4.15-1.59-1.47-.26-3.09-.04-4.23.92-1.75,1.48-1.81,4.33-.62,6.28,1.19,1.96,3.31,3.16,5.46,3.97,6.95,2.59,15.49,3.25,21.65-.87"/>
    <path class="cls-1" d="m66.05,638.5l3.46-20.58c.35-2.05.77-4.27,2.31-5.67,1.84-1.68,4.89-1.6,6.9-.14,2.02,1.47,3.03,4.04,3.03,6.53s-.93,4.91-2.16,7.07c-3.01,5.25-8.03,9.32-13.79,11.17"/>
    <path class="cls-1" d="m70.61,646.09c-5.56-2.58-11.12-5.16-16.68-7.74-2.42-1.12-5.1-2.27-7.66-1.54-2.82.8-4.64,3.89-4.41,6.81.24,2.92,2.26,5.52,4.84,6.9s5.65,1.66,8.55,1.28c5.1-.68,9.77-3.29,13.74-6.56"/>
    <path class="cls-1" d="m85.54,658.38c-3.55-4.81-5.22-10.96-4.6-16.91.13-1.28.4-2.61,1.21-3.62,1.68-2.09,5.23-1.84,7.14.05,1.91,1.89,2.38,4.84,1.98,7.5-.4,2.65-1.55,5.13-2.48,7.64-.93,2.52-1.66,5.22-1.19,7.86"/>
    <path class="cls-1" d="m90.85,667.92c-4.16-2.91-8.92-4.96-13.9-5.96-2.3-.47-4.74-.7-6.97.04-2.23.74-4.2,2.67-4.36,5.02-.21,3.02,2.53,5.5,5.38,6.53,4.24,1.53,8.94.95,13.35-.03,4.4-.98,8.79-2.33,13.3-2.31"/>
  </g>
  <g class="cls-4">
    <g>
      <path class="cls-1" d="m1144.82,559.8c.31,6.85-.12,13.73-1,20.53-.87,6.82-2.37,13.55-4.43,20.1-4.07,12.92-10.25,25.32-18.44,36.13-8.32,10.98-18.61,20.39-30.36,27.59-3.53,2.16-7.18,4.12-10.92,5.88-3.2,1.5-7.33,2.21-10.25,4.01-.26.16-.53.37-.57.67-.05.35.23.65.51.86,1.99,1.5,4.78,1.19,7.19.57,4.12-1.07,8.44-2.88,12.16-4.93,12.57-6.94,23.75-16.26,32.75-27.46,8.88-11.04,15.87-23.71,20.2-37.21,2.15-6.7,3.7-13.59,4.61-20.56.46-3.49.76-7,.9-10.51.14-3.54-.07-7.07-.32-10.6-.12-1.72-.29-3.43-.49-5.14-.11-.98-1.59-.93-1.55.07Z"/>
      <path class="cls-1" d="m1145,575.95c-3.7-5.49-4.11-12.47-4.4-19.08-.1-2.19-.18-4.46.6-6.5.79-2.05,2.7-3.83,4.89-3.76,1.59.05,3.04,1.08,3.91,2.42s1.23,2.94,1.39,4.52c.57,5.76-1.78,18.53-5.84,22.65"/>
    </g>
    <path class="cls-1" d="m1146.3,587.91c3.05-3.21,6.67-5.89,10.63-7.86,1.59-.79,3.39-1.49,5.1-.99,2.32.67,3.56,3.52,2.91,5.85-.65,2.33-2.78,4.03-5.09,4.72-2.32.69-4.8.5-7.18.09-2.38-.41-4.73-1.04-7.14-1.24"/>
    <path class="cls-1" d="m1142.39,593.92c-1.66-6.68-3.84-13.23-6.52-19.56-.92-2.18-2.16-4.57-4.44-5.21-2.36-.67-4.92,1.01-5.89,3.26-.97,2.25-.66,4.86.1,7.19,2.39,7.37,9.34,13.03,17.04,13.89"/>
    <path class="cls-1" d="m1141.58,607.25c4.99-3.84,10.79-6.62,16.92-8.08,2.6-.62,5.86-.77,7.38,1.42.91,1.3.85,3.11.15,4.54-.7,1.42-1.95,2.51-3.3,3.34-3.45,2.12-7.63,2.8-11.67,2.63s-8.01-1.13-11.94-2.1"/>
    <path class="cls-1" d="m1130.16,624.85c.43-6.77.48-13.56.16-20.33-.08-1.63-.28-3.47-1.57-4.48-1.12-.88-2.79-.81-4.04-.11-1.25.7-2.13,1.9-2.79,3.17-1.96,3.76-2.24,8.36-.74,12.33,1.5,3.97,4.75,7.24,8.7,8.77"/>
    <path class="cls-1" d="m1126.54,636.22c6.17-1.66,12.35-3.33,18.52-4.99,1.38-.37,2.79-.75,4.22-.71,1.43.04,2.92.55,3.81,1.68,1.37,1.73.88,4.42-.62,6.04-1.5,1.62-3.73,2.35-5.91,2.69-7.04,1.11-15.22.1-20.24-4.96"/>
    <path class="cls-1" d="m1115.37,648.45c.23-6.69.45-13.37.68-20.06.07-2,.09-4.17-1.09-5.79-1.41-1.94-4.3-2.45-6.48-1.45-2.18,1-3.63,3.23-4.1,5.58-.47,2.35-.07,4.8.69,7.08,1.83,5.53,5.78,10.32,10.86,13.17"/>
    <path class="cls-1" d="m1109.62,654.73c5.73-1.37,11.47-2.73,17.2-4.1,2.49-.59,5.24-1.16,7.52.01,2.5,1.29,3.63,4.55,2.85,7.26-.78,2.71-3.18,4.77-5.88,5.57-2.7.81-5.64.49-8.3-.43-4.67-1.61-8.58-4.97-11.69-8.81"/>
    <path class="cls-1" d="m1093.2,663.46c4.27-3.85,7.02-9.33,7.57-15.05.12-1.24.13-2.54-.44-3.64-1.18-2.29-4.58-2.73-6.74-1.32-2.16,1.41-3.17,4.11-3.3,6.69-.13,2.58.48,5.13.87,7.68.4,2.55.57,5.24-.38,7.64"/>
    <path class="cls-1" d="m1086.37,671.44c4.48-1.95,9.36-2.96,14.24-2.96,2.26,0,4.6.25,6.56,1.37,1.96,1.13,3.45,3.32,3.15,5.56-.38,2.89-3.44,4.7-6.32,5.12-4.29.63-8.61-.82-12.57-2.58-3.96-1.76-7.84-3.88-12.09-4.72"/>
  </g>
</svg>