<?xml version="1.0" encoding="UTF-8"?>
<svg id="Layer_1" data-name="Layer 1" xmlns="http://www.w3.org/2000/svg" viewBox="0 0 100 100">
  <defs>
    <style>
      .cls-1 {
        fill: #24a9e1;
      }
    </style>
  </defs>
  <path class="cls-1" d="m89.28,24.96c-.07-.15-.3-.26-.48-.32-6.12-1.8-12.19-1.69-18.21.48-3.55,1.28-6.84,3.08-10.11,4.92-.16.09-.33.18-.62.33.16-.3.24-.46.32-.61,1.25-2.34,2.5-4.67,3.77-6.99,1.14-2.08,2.22-4.33,2.24-6.75,0-.27,0-.53-.03-.8-.29-3.15-2.59-6.36-5.75-7.23-1.76-.48-3.35.33-4.51,1.64-1.4,1.58-2.26,3.62-2.95,5.59-.69,1.97-1.2,4-1.61,6.04,0,0,0,0,0,.01l-.6,4.14s-.22-.71-.22-.71c-.51-1.68-1.02-3.36-1.53-5.05-.35-1.15-.64-2.31-1.03-3.44s-.87-2.25-1.41-3.33c-1.05-2.1-2.36-4.08-3.94-5.83-2.01-2.23-5.88-5.94-9.05-3.61-.63.46-1.17,1.13-1.47,1.85-1.61,2.75-2.32,5.7-1.8,8.9.46,2.84,1.75,5.32,3.39,7.64,2.11,2.97,4.72,5.47,7.41,7.9.19.17.37.34.56.5-.23.03-.42-.01-.6-.07-2.7-.88-5.4-1.79-8.12-2.63-4.4-1.35-8.88-2.21-13.52-1.74-2.48.25-4.81.89-6.93,2.28-2.86,1.88-4.11,4.67-4.75,7.93.14-.04.22-.05.29-.09,4.18-1.98,8.61-3.02,13.2-3.44,4.75-.44,9.5-.24,14.24.18,2.71.24,5.41.59,8.12.91.35.04.7.08,1.06.13,1.19.19,2.21.37,3.07.53,2.72.52,3.9.9,3.9.9h-24.48l-.43.02v51.1h50.17v-51.11h-21.62s-.06-.09-.09-.13c.18-.15.38-.29.55-.45,2.64-2.52,5.76-4.23,9.2-5.37,5.07-1.68,10.27-2.13,15.57-1.49,3.26.39,6.41,1.2,9.4,2.56.7.32,1.39.67,2.2,1.07-.96-2.2-1.85-4.28-2.78-6.34Zm-25.68,24.38v-12.28h11.36v48.25h-35.01v-11.36h23.62v-13.2h-23.62v-11.41h23.65Zm-9.01-16.88c-.12.14-.25.28-.38.41-.25.27-.51.54-.81.75-.1.07-.2.13-.31.18-1.24.56-2.23-.32-3.34-.7-1.07-.36-2.08-.82-3.06-1.38-3.33-1.88-6.35-4.74-8.6-7.83-2.2-3.02-6.76-11.25-1.9-13.94,2.07-1.15,4.96.06,6.66,1.4,1.76,1.38,2.76,3.33,3.54,5.38,1.56,4.15,3.29,8.25,4.9,12.38.06-3.01.62-6,1.67-8.82.49-1.34,1.1-2.64,1.98-3.77.88-1.12,2.04-2.06,3.4-2.48,1.23-.39,2.93-.38,4,.44.99.76,1.99,1.91,1.88,3.24-.07.81-.42,1.57-.78,2.3-2.28,4.52-5.45,8.68-8.83,12.42ZM5.58,97.16v-6.51h4.47v1.1h-3.15v1.54h2.72v1.1h-2.72v2.77h-1.32Zm5.58,0v-6.46h1.32v5.36h3.27v1.1h-4.59Zm5.26-3.22c0-.66.1-1.22.3-1.67.15-.33.35-.63.61-.89.26-.26.54-.46.84-.59.41-.17.87-.26,1.4-.26.96,0,1.73.3,2.3.89.58.6.86,1.42.86,2.48s-.29,1.87-.86,2.47c-.57.59-1.34.89-2.29.89s-1.74-.3-2.31-.89c-.57-.59-.86-1.4-.86-2.44Zm1.36-.04c0,.74.17,1.3.51,1.68.34.38.77.57,1.3.57s.95-.19,1.29-.57c.34-.38.5-.94.5-1.7s-.16-1.3-.49-1.67c-.33-.37-.76-.55-1.3-.55s-.98.19-1.31.56c-.33.37-.5.93-.5,1.68Zm5.99,3.26v-6.51h2.77c.7,0,1.2.06,1.52.18s.57.33.76.62c.19.3.28.64.28,1.03,0,.49-.14.89-.43,1.21-.29.32-.72.52-1.29.6.28.17.52.35.7.55.19.2.43.55.75,1.06l.8,1.27h-1.57l-.95-1.42c-.34-.51-.57-.83-.69-.96s-.26-.22-.4-.27c-.14-.05-.36-.07-.66-.07h-.27v2.72h-1.32Zm1.32-3.76h.97c.63,0,1.02-.03,1.18-.08.16-.05.28-.15.37-.28.09-.13.13-.29.13-.49,0-.22-.06-.4-.18-.53-.12-.13-.28-.22-.5-.26-.11-.01-.43-.02-.96-.02h-1.03v1.65Zm5.21,3.76v-6.51h1.32v6.51h-1.32Zm2.56-6.51h2.4c.54,0,.96.04,1.24.12.38.11.71.31.98.6.27.29.48.64.62,1.06.14.42.21.93.21,1.54,0,.54-.07,1-.2,1.39-.16.47-.4.86-.7,1.15-.23.22-.54.4-.92.52-.29.09-.68.14-1.16.14h-2.47v-6.51Zm1.32,1.1v4.31h.98c.37,0,.63-.02.8-.06.21-.05.39-.14.53-.27.14-.13.26-.34.34-.63.09-.29.13-.69.13-1.19s-.04-.89-.13-1.16c-.09-.27-.21-.48-.37-.63-.16-.15-.36-.25-.61-.31-.18-.04-.54-.06-1.08-.06h-.59Zm11.13,5.41h-1.43l-.57-1.48h-2.6l-.54,1.48h-1.4l2.54-6.51h1.39l2.61,6.51Zm-2.42-2.58l-.9-2.42-.88,2.42h1.78Zm2.97.84v-1.25h2.45v1.25h-2.45Zm3.19,1.74v-6.51h4.47v1.1h-3.15v1.54h2.72v1.1h-2.72v2.77h-1.32Zm5.54-6.51h1.32v3.53c0,.56.02.92.05,1.09.06.27.19.48.4.64.21.16.5.24.87.24s.65-.08.84-.23.3-.34.34-.56c.04-.22.06-.59.06-1.11v-3.6h1.32v3.42c0,.78-.04,1.33-.11,1.66-.07.32-.2.6-.39.82-.19.22-.45.4-.77.53-.32.13-.74.2-1.25.2-.62,0-1.09-.07-1.42-.22-.32-.14-.58-.33-.76-.56-.19-.23-.31-.47-.37-.72-.09-.37-.13-.92-.13-1.65v-3.47Zm6.59,6.51v-6.51h1.28l2.67,4.35v-4.35h1.22v6.51h-1.32l-2.63-4.25v4.25h-1.22Zm6.22-2.12l1.28-.12c.08.43.23.74.47.95s.55.3.95.3c.42,0,.74-.09.96-.27.21-.18.32-.39.32-.63,0-.15-.05-.28-.14-.39-.09-.11-.25-.2-.47-.28-.15-.05-.51-.15-1.05-.28-.7-.17-1.2-.39-1.48-.64-.4-.36-.6-.8-.6-1.31,0-.33.09-.64.28-.93.19-.29.46-.51.81-.66.35-.15.78-.23,1.28-.23.82,0,1.43.18,1.85.54s.63.84.65,1.44l-1.32.06c-.06-.33-.18-.58-.36-.72-.19-.15-.46-.22-.83-.22s-.68.08-.9.24c-.14.1-.21.24-.21.4,0,.15.07.29.2.4.17.14.57.28,1.21.44.64.15,1.11.31,1.42.47s.55.38.72.66c.17.28.26.63.26,1.04,0,.37-.1.72-.31,1.05s-.5.57-.88.73c-.38.16-.85.24-1.42.24-.82,0-1.46-.19-1.9-.57s-.7-.94-.79-1.66Zm6.41,2.12v-6.51h1.32v2.56h2.58v-2.56h1.32v6.51h-1.32v-2.85h-2.58v2.85h-1.32Zm6.53,0v-6.51h1.32v6.51h-1.32Zm2.58,0v-6.51h1.28l2.67,4.35v-4.35h1.22v6.51h-1.32l-2.63-4.25v4.25h-1.22Zm6.56,0v-6.51h4.83v1.1h-3.51v1.44h3.27v1.1h-3.27v1.77h3.64v1.1h-4.95Z"/>
</svg>