<?xml version="1.0" encoding="UTF-8"?>
<svg id="Layer_1" data-name="Layer 1" xmlns="http://www.w3.org/2000/svg" viewBox="0 0 32 32">
  <defs>
    <style>
      .cls-1 {
        fill: #24a9e1;
      }
    </style>
  </defs>
  <path class="cls-1" d="m29,7.71s-.1-.09-.16-.11c-2.03-.6-4.04-.56-6.03.16-1.17.42-2.26,1.02-3.35,1.63-.05.03-.11.06-.21.11.05-.1.08-.15.11-.2.41-.77.83-1.54,1.25-2.31.38-.69.73-1.43.74-2.23,0-.09,0-.18-.01-.26-.09-1.04-.86-2.11-1.9-2.39-.58-.16-1.11.11-1.49.54-.46.52-.75,1.2-.98,1.85-.23.65-.4,1.32-.53,2,0,0,0,0,0,0l-.2,1.37s-.07-.24-.07-.24c-.17-.56-.34-1.11-.51-1.67-.12-.38-.21-.76-.34-1.14s-.29-.75-.47-1.1c-.35-.7-.78-1.35-1.3-1.93-.66-.74-1.94-1.96-3-1.2-.21.15-.39.37-.49.61-.53.91-.77,1.89-.6,2.94.15.94.58,1.76,1.12,2.53.7.98,1.56,1.81,2.45,2.61.06.06.12.11.19.17-.08,0-.14,0-.2-.02-.9-.29-1.79-.59-2.69-.87-1.46-.45-2.94-.73-4.47-.58-.82.08-1.59.29-2.3.76-.95.62-1.36,1.55-1.57,2.62.05-.01.07-.02.1-.03,1.38-.66,2.85-1,4.37-1.14,1.57-.14,3.14-.08,4.71.06.9.08,1.79.2,2.69.3.12.01.23.03.35.04.39.06.73.12,1.02.18.9.17,1.29.3,1.29.3h-8.25v16.92h16.6V11.08h-7.15s-.02-.03-.03-.04c.06-.05.13-.1.18-.15.87-.83,1.91-1.4,3.04-1.78,1.68-.56,3.4-.7,5.15-.49,1.08.13,2.12.4,3.11.85.23.11.46.22.73.35-.32-.73-.61-1.42-.92-2.1Zm-8.5,8.07v-4.06h3.76v15.97h-11.59v-3.76h7.82v-4.37h-7.82v-3.78h7.83Zm-2.98-5.59s-.08.09-.12.14c-.08.09-.17.18-.27.25-.03.02-.07.04-.1.06-.41.19-.74-.11-1.11-.23-.35-.12-.69-.27-1.01-.46-1.1-.62-2.1-1.57-2.85-2.59-.73-1-2.24-3.72-.63-4.61.69-.38,1.64.02,2.2.46.58.46.91,1.1,1.17,1.78.52,1.37,1.09,2.73,1.62,4.1.02-.99.21-1.99.55-2.92.16-.44.36-.87.65-1.25.29-.37.67-.68,1.12-.82.41-.13.97-.13,1.32.15.33.25.66.63.62,1.07-.02.27-.14.52-.26.76-.75,1.5-1.8,2.87-2.92,4.11ZM1.3,31.61v-2.16h1.48v.36h-1.04v.51h.9v.36h-.9v.92h-.44Zm1.85,0v-2.14h.44v1.77h1.08v.36h-1.52Zm1.74-1.06c0-.22.03-.4.1-.55.05-.11.12-.21.2-.3.08-.09.18-.15.28-.19.13-.06.29-.09.46-.09.32,0,.57.1.76.3.19.2.29.47.29.82s-.09.62-.28.82c-.19.2-.44.29-.76.29s-.58-.1-.76-.29c-.19-.2-.28-.46-.28-.81Zm.45-.01c0,.24.06.43.17.56.11.13.26.19.43.19s.32-.06.43-.19c.11-.12.17-.31.17-.56s-.05-.43-.16-.55c-.11-.12-.25-.18-.43-.18s-.32.06-.43.18c-.11.12-.16.31-.16.56Zm1.98,1.08v-2.16h.92c.23,0,.4.02.5.06s.19.11.25.21c.06.1.09.21.09.34,0,.16-.05.3-.14.4-.1.11-.24.17-.43.2.09.05.17.12.23.18.06.07.14.18.25.35l.26.42h-.52l-.31-.47c-.11-.17-.19-.27-.23-.32s-.08-.07-.13-.09c-.05-.02-.12-.02-.22-.02h-.09v.9h-.44Zm.44-1.24h.32c.21,0,.34,0,.39-.03.05-.02.09-.05.12-.09.03-.04.04-.1.04-.16,0-.07-.02-.13-.06-.18-.04-.04-.09-.07-.16-.08-.04,0-.14,0-.32,0h-.34v.55Zm1.72,1.24v-2.16h.44v2.16h-.44Zm.85-2.16h.8c.18,0,.32.01.41.04.13.04.23.1.32.2.09.1.16.21.21.35.05.14.07.31.07.51,0,.18-.02.33-.07.46-.05.16-.13.28-.23.38-.08.07-.18.13-.31.17-.1.03-.22.05-.39.05h-.82v-2.16Zm.44.36v1.43h.32c.12,0,.21,0,.26-.02.07-.02.13-.05.18-.09.05-.04.08-.11.11-.21.03-.1.04-.23.04-.39s-.01-.29-.04-.38c-.03-.09-.07-.16-.12-.21-.05-.05-.12-.08-.2-.1-.06-.01-.18-.02-.36-.02h-.2Zm3.68,1.79h-.47l-.19-.49h-.86l-.18.49h-.46l.84-2.16h.46l.86,2.16Zm-.8-.85l-.3-.8-.29.8h.59Zm.98.28v-.41h.81v.41h-.81Zm1.06.57v-2.16h1.48v.36h-1.04v.51h.9v.36h-.9v.92h-.44Zm1.83-2.16h.44v1.17c0,.19,0,.31.02.36.02.09.06.16.13.21.07.05.17.08.29.08s.22-.03.28-.08.1-.11.11-.19c.01-.07.02-.2.02-.37v-1.19h.44v1.13c0,.26-.01.44-.04.55-.02.11-.07.2-.13.27-.06.07-.15.13-.25.18-.11.04-.24.07-.41.07-.21,0-.36-.02-.47-.07-.11-.05-.19-.11-.25-.19-.06-.08-.1-.16-.12-.24-.03-.12-.04-.31-.04-.55v-1.15Zm2.18,2.16v-2.16h.42l.88,1.44v-1.44h.4v2.16h-.44l-.87-1.41v1.41h-.4Zm2.06-.7l.42-.04c.03.14.08.25.16.31s.18.1.32.1c.14,0,.25-.03.32-.09.07-.06.11-.13.11-.21,0-.05-.01-.09-.04-.13-.03-.04-.08-.07-.16-.09-.05-.02-.17-.05-.35-.09-.23-.06-.4-.13-.49-.21-.13-.12-.2-.26-.2-.43,0-.11.03-.21.09-.31.06-.1.15-.17.27-.22.12-.05.26-.08.42-.08.27,0,.47.06.61.18s.21.28.22.47l-.44.02c-.02-.11-.06-.19-.12-.24-.06-.05-.15-.07-.28-.07s-.23.03-.3.08c-.05.03-.07.08-.07.13,0,.05.02.09.06.13.05.05.19.09.4.14.21.05.37.1.47.16s.18.13.24.22c.06.09.09.21.09.34,0,.12-.03.24-.1.35s-.17.19-.29.24c-.13.05-.28.08-.47.08-.27,0-.48-.06-.63-.19s-.23-.31-.26-.55Zm2.12.7v-2.16h.44v.85h.85v-.85h.44v2.16h-.44v-.94h-.85v.94h-.44Zm2.16,0v-2.16h.44v2.16h-.44Zm.85,0v-2.16h.42l.88,1.44v-1.44h.4v2.16h-.44l-.87-1.41v1.41h-.4Zm2.17,0v-2.16h1.6v.36h-1.16v.48h1.08v.36h-1.08v.59h1.2v.36h-1.64Z"/>
</svg>