<?xml version="1.0" encoding="UTF-8"?>
<svg xmlns="http://www.w3.org/2000/svg" xmlns:xlink="http://www.w3.org/1999/xlink" viewBox="0 0 503.35 603.24">
  <defs>
    <style>
      .cls-1 {
        filter: url(#drop-shadow-10);
      }

      .cls-2 {
        filter: url(#drop-shadow-14);
      }

      .cls-3, .cls-4, .cls-5, .cls-6 {
        fill: #fff;
      }

      .cls-7 {
        fill: #c3e2bc;
      }

      .cls-8 {
        fill: #e7f9e4;
      }

      .cls-9 {
        clip-path: url(#clippath-2);
      }

      .cls-10 {
        isolation: isolate;
      }

      .cls-11 {
        fill: #e4beb4;
      }

      .cls-12 {
        filter: url(#drop-shadow-8);
      }

      .cls-13 {
        filter: url(#drop-shadow-15);
      }

      .cls-14 {
        filter: url(#drop-shadow-3);
      }

      .cls-15 {
        fill: url(#radial-gradient-2);
      }

      .cls-15, .cls-16, .cls-17, .cls-18, .cls-19, .cls-20, .cls-21 {
        mix-blend-mode: multiply;
        opacity: .58;
      }

      .cls-22 {
        fill: #c3edf6;
      }

      .cls-23 {
        filter: url(#drop-shadow-1);
      }

      .cls-24 {
        fill: #c0edb7;
      }

      .cls-16 {
        fill: url(#radial-gradient-7);
      }

      .cls-25 {
        clip-path: url(#clippath-1);
      }

      .cls-26 {
        clip-path: url(#clippath-4);
      }

      .cls-27 {
        filter: url(#drop-shadow-6);
      }

      .cls-4 {
        filter: url(#drop-shadow-5);
      }

      .cls-17 {
        fill: url(#radial-gradient-5);
      }

      .cls-28 {
        filter: url(#drop-shadow-2);
      }

      .cls-18 {
        fill: url(#radial-gradient-4);
      }

      .cls-29 {
        clip-path: url(#clippath);
      }

      .cls-5 {
        filter: url(#drop-shadow-7);
      }

      .cls-19 {
        fill: url(#radial-gradient-3);
      }

      .cls-30 {
        fill: #ed8c4a;
        filter: url(#drop-shadow-11);
      }

      .cls-31 {
        fill: none;
      }

      .cls-32 {
        filter: url(#drop-shadow-16);
      }

      .cls-33 {
        clip-path: url(#clippath-3);
      }

      .cls-34 {
        fill: #fbf161;
        filter: url(#drop-shadow-4);
      }

      .cls-35 {
        filter: url(#drop-shadow-9);
      }

      .cls-20 {
        fill: url(#radial-gradient);
      }

      .cls-6 {
        filter: url(#drop-shadow-12);
      }

      .cls-36 {
        filter: url(#drop-shadow-13);
      }

      .cls-37 {
        clip-path: url(#clippath-5);
      }

      .cls-21 {
        fill: url(#radial-gradient-6);
      }

      .cls-38 {
        fill: #7b9e35;
      }

      .cls-39 {
        fill: #739150;
      }

      .cls-40 {
        fill: #465f19;
      }

      .cls-41 {
        fill: #f4ed8a;
      }
    </style>
    <clipPath id="clippath">
      <path class="cls-31" d="m471.16,344.99c0,160.93-90.93,247.74-219.45,247.74S32.91,505.92,32.91,344.99,142.33,9.94,251.71,9.94s219.45,174.11,219.45,335.04Z"/>
    </clipPath>
    <radialGradient id="radial-gradient" cx="-1536.63" cy="194.71" fx="-1536.63" fy="194.71" r="16.19" gradientTransform="translate(810.74 -5899.54) rotate(-90) scale(4.06 -3.31)" gradientUnits="userSpaceOnUse">
      <stop offset="0" stop-color="#4674b8"/>
      <stop offset=".1" stop-color="#557fbe" stop-opacity=".92"/>
      <stop offset=".31" stop-color="#7e9ecd" stop-opacity=".69"/>
      <stop offset=".59" stop-color="#c0d0e7" stop-opacity=".34"/>
      <stop offset=".83" stop-color="#fff" stop-opacity="0"/>
    </radialGradient>
    <filter id="drop-shadow-1" filterUnits="userSpaceOnUse">
      <feOffset dx="-2.78" dy="-1.11"/>
      <feGaussianBlur result="blur" stdDeviation="2.22"/>
      <feFlood flood-color="#36591d" flood-opacity=".45"/>
      <feComposite in2="blur" operator="in"/>
      <feComposite in="SourceGraphic"/>
    </filter>
    <clipPath id="clippath-1">
      <path class="cls-31" d="m174,350.42c-11.64,12.25-25.2,11.42-34.5,2.58-9.3-8.84-10.82-22.34.81-34.59,11.64-12.25,34.59-21.31,43.9-12.47,9.3,8.84,1.43,32.23-10.21,44.48Z"/>
    </clipPath>
    <filter id="drop-shadow-2" filterUnits="userSpaceOnUse">
      <feOffset dx="-3.62" dy="-1.45"/>
      <feGaussianBlur result="blur-2" stdDeviation="2.9"/>
      <feFlood flood-color="#36591d" flood-opacity=".45"/>
      <feComposite in2="blur-2" operator="in"/>
      <feComposite in="SourceGraphic"/>
    </filter>
    <clipPath id="clippath-2">
      <path class="cls-31" d="m309.95,382.45c10.06,19.83,3.06,36.28-12,43.92-15.06,7.64-32.47,3.58-42.53-16.25-10.06-19.83-11.18-52.29,3.88-59.93,15.06-7.64,40.59,12.43,50.65,32.26Z"/>
    </clipPath>
    <filter id="drop-shadow-3" filterUnits="userSpaceOnUse">
      <feOffset dx="-5.72" dy="-7.36"/>
      <feGaussianBlur result="blur-3" stdDeviation="4.9"/>
      <feFlood flood-color="#29411a" flood-opacity=".4"/>
      <feComposite in2="blur-3" operator="in"/>
      <feComposite in="SourceGraphic"/>
    </filter>
    <radialGradient id="radial-gradient-2" cx="-1595.3" cy="-76.26" fx="-1595.3" fy="-76.26" r="16.19" gradientTransform="translate(-61.4 -4582.78) rotate(-90) scale(3.04 -2.6)" gradientUnits="userSpaceOnUse">
      <stop offset="0" stop-color="#4674b8"/>
      <stop offset=".13" stop-color="#557fbe" stop-opacity=".92"/>
      <stop offset=".37" stop-color="#7e9ecd" stop-opacity=".69"/>
      <stop offset=".71" stop-color="#c0d0e7" stop-opacity=".34"/>
      <stop offset="1" stop-color="#fff" stop-opacity="0"/>
    </radialGradient>
    <filter id="drop-shadow-4" filterUnits="userSpaceOnUse">
      <feOffset dx="-2.61" dy="-1.04"/>
      <feGaussianBlur result="blur-4" stdDeviation="2.09"/>
      <feFlood flood-color="#3c5786" flood-opacity=".45"/>
      <feComposite in2="blur-4" operator="in"/>
      <feComposite in="SourceGraphic"/>
    </filter>
    <filter id="drop-shadow-5" filterUnits="userSpaceOnUse">
      <feOffset dx="-3.11" dy="-1.24"/>
      <feGaussianBlur result="blur-5" stdDeviation="2.49"/>
      <feFlood flood-color="#3c5786" flood-opacity=".45"/>
      <feComposite in2="blur-5" operator="in"/>
      <feComposite in="SourceGraphic"/>
    </filter>
    <radialGradient id="radial-gradient-3" cx="-1657.28" cy="-36.18" fx="-1657.28" fy="-36.18" r="16.19" gradientTransform="translate(222.06 -4694.92) rotate(-90) scale(3.04 -2.6)" xlink:href="#radial-gradient-2"/>
    <radialGradient id="radial-gradient-4" cx="-1612.13" cy="-168.91" fx="-1612.13" fy="-168.91" r="19.28" gradientTransform="translate(-235.13 -4740.79) rotate(-90) scale(3.04 -2.6)" xlink:href="#radial-gradient-2"/>
    <filter id="drop-shadow-6" filterUnits="userSpaceOnUse">
      <feOffset dx="-3.81" dy="-1.52"/>
      <feGaussianBlur result="blur-6" stdDeviation="3.05"/>
      <feFlood flood-color="#36591d" flood-opacity=".45"/>
      <feComposite in2="blur-6" operator="in"/>
      <feComposite in="SourceGraphic"/>
    </filter>
    <clipPath id="clippath-3">
      <path class="cls-31" d="m197.15,427.57c-1.17,23.13-16.02,34.36-33.58,33.47-17.56-.89-31.19-13.57-30.02-36.7,1.17-23.13,16.96-53.04,34.52-52.15,17.56.89,30.25,32.24,29.07,55.37Z"/>
    </clipPath>
    <filter id="drop-shadow-7" filterUnits="userSpaceOnUse">
      <feOffset dx="-3.14" dy="-1.26"/>
      <feGaussianBlur result="blur-7" stdDeviation="2.51"/>
      <feFlood flood-color="#3c5786" flood-opacity=".45"/>
      <feComposite in2="blur-7" operator="in"/>
      <feComposite in="SourceGraphic"/>
    </filter>
    <filter id="drop-shadow-8" filterUnits="userSpaceOnUse">
      <feOffset dx="-5.72" dy="-7.36"/>
      <feGaussianBlur result="blur-8" stdDeviation="2"/>
      <feFlood flood-color="#29411a" flood-opacity=".4"/>
      <feComposite in2="blur-8" operator="in"/>
      <feComposite in="SourceGraphic"/>
    </filter>
    <radialGradient id="radial-gradient-5" cx="-1593.39" cy="63.95" fx="-1593.39" fy="63.95" r="16.19" gradientTransform="translate(272.27 -4405.04) rotate(-90) scale(3.04 -2.6)" xlink:href="#radial-gradient-2"/>
    <radialGradient id="radial-gradient-6" cx="-1656.5" cy="99.1" fx="-1656.5" fy="99.1" r="16.19" gradientTransform="translate(547.16 -4526.23) rotate(-90) scale(3.04 -2.6)" xlink:href="#radial-gradient-2"/>
    <filter id="drop-shadow-9" filterUnits="userSpaceOnUse">
      <feOffset dx="-3.67" dy="-1.47"/>
      <feGaussianBlur result="blur-9" stdDeviation="2.94"/>
      <feFlood flood-color="#36591d" flood-opacity=".45"/>
      <feComposite in2="blur-9" operator="in"/>
      <feComposite in="SourceGraphic"/>
    </filter>
    <clipPath id="clippath-4">
      <path class="cls-31" d="m448.8,310.21c17.32,14.11,17.59,32.06,6.87,45.21-10.71,13.15-28.35,16.52-45.66,2.41-17.32-14.11-31.57-43.45-20.86-56.6,10.71-13.15,42.33-5.13,59.65,8.98Z"/>
    </clipPath>
    <filter id="drop-shadow-10" filterUnits="userSpaceOnUse">
      <feOffset dx="-3.62" dy="-1.45"/>
      <feGaussianBlur result="blur-10" stdDeviation="2.9"/>
      <feFlood flood-color="#36591d" flood-opacity=".45"/>
      <feComposite in2="blur-10" operator="in"/>
      <feComposite in="SourceGraphic"/>
    </filter>
    <clipPath id="clippath-5">
      <path class="cls-31" d="m402.92,435.86c2.59,22.09-9.67,35.1-26.44,37.07-16.77,1.97-31.71-7.86-34.3-29.94-2.59-22.08,7.57-52.93,24.35-54.9,16.77-1.97,33.8,25.69,36.39,47.78Z"/>
    </clipPath>
    <filter id="drop-shadow-11" filterUnits="userSpaceOnUse">
      <feOffset dx="-3.03" dy="-1.21"/>
      <feGaussianBlur result="blur-11" stdDeviation="2.42"/>
      <feFlood flood-color="#36591d" flood-opacity=".45"/>
      <feComposite in2="blur-11" operator="in"/>
      <feComposite in="SourceGraphic"/>
    </filter>
    <filter id="drop-shadow-12" filterUnits="userSpaceOnUse">
      <feOffset dx="-3.62" dy="-1.45"/>
      <feGaussianBlur result="blur-12" stdDeviation="2.9"/>
      <feFlood flood-color="#3c5786" flood-opacity=".45"/>
      <feComposite in2="blur-12" operator="in"/>
      <feComposite in="SourceGraphic"/>
    </filter>
    <radialGradient id="radial-gradient-7" cx="-1640.6" cy="-119.92" fx="-1640.6" fy="-119.92" r="16.19" gradientTransform="translate(-30.91 -4754.64) rotate(-90) scale(3.04 -2.6)" xlink:href="#radial-gradient-2"/>
    <filter id="drop-shadow-13" filterUnits="userSpaceOnUse">
      <feOffset dx="-3.33" dy="-1.33"/>
      <feGaussianBlur result="blur-13" stdDeviation="2.67"/>
      <feFlood flood-color="#446d4a" flood-opacity=".45"/>
      <feComposite in2="blur-13" operator="in"/>
      <feComposite in="SourceGraphic"/>
    </filter>
    <filter id="drop-shadow-14" filterUnits="userSpaceOnUse">
      <feOffset dx="-5.72" dy="-4"/>
      <feGaussianBlur result="blur-14" stdDeviation="4"/>
      <feFlood flood-color="#395b25" flood-opacity=".4"/>
      <feComposite in2="blur-14" operator="in"/>
      <feComposite in="SourceGraphic"/>
    </filter>
    <filter id="drop-shadow-15" filterUnits="userSpaceOnUse">
      <feOffset dx="-4.29" dy="-1.72"/>
      <feGaussianBlur result="blur-15" stdDeviation="3.43"/>
      <feFlood flood-color="#446d4a" flood-opacity=".45"/>
      <feComposite in2="blur-15" operator="in"/>
      <feComposite in="SourceGraphic"/>
    </filter>
    <filter id="drop-shadow-16" filterUnits="userSpaceOnUse">
      <feOffset dx="-3.64" dy="-1.45"/>
      <feGaussianBlur result="blur-16" stdDeviation="2.91"/>
      <feFlood flood-color="#446d4a" flood-opacity=".45"/>
      <feComposite in2="blur-16" operator="in"/>
      <feComposite in="SourceGraphic"/>
    </filter>
  </defs>
  <g class="cls-10">
    <g id="OBJETCS">
      <g>
        <path class="cls-3" d="m490,353.06c-.43,3.02-.86,6.04-1.28,9.05s-.66,6.35-.93,9.53c-.52,5.99-1.2,11.96-1.69,17.95s-1.06,11.81-1.82,17.69c-.04.32-.08.63-.12.95-.09.67-.04-.14.02-.16-.02,0-.06.43-.06.47-.11.79-.22,1.57-.33,2.35-.21,1.42-.43,2.83-.66,4.24-.48,2.95-1.02,5.89-1.61,8.82-2.35,11.61-5.7,23-9.74,34.12-1.01,2.77-2.06,5.51-3.14,8.25-.55,1.38-1.11,2.76-1.67,4.13-.26.64-.53,1.28-.8,1.92-.08.2-.17.39-.25.59,0,0,.38-.89.17-.4-.17.39-.33.79-.5,1.18-2.34,5.47-4.8,10.89-7.36,16.26s-5.14,10.77-7.66,16.19c-1.23,2.66-2.48,5.31-3.74,7.96-1.34,2.81-2.5,5.65-3.63,8.55-.5,1.29-.97,2.57-1.35,3.9-.35,1.21.22,2.75,1.36,3.35s2.74.57,3.6-.46c3.76-4.56,6.66-9.69,9.51-14.84s5.76-10.48,8.34-15.88c5.31-11.11,10.3-22.39,14.63-33.92,4.16-11.07,7.52-22.34,9.79-33.96,2.35-12.01,3.71-24.2,4.5-36.4.39-6,.47-12,.48-18.01,0-3.03,0-6.05,0-9.08s-.21-6.14-.4-9.22c-.1-1.56-.19-3.12-.29-4.67-.05-.84-.61-1.57-1.48-1.68-.75-.09-1.75.37-1.87,1.22h0Z"/>
        <g>
          <g>
            <g class="cls-29">
              <ellipse class="cls-40" cx="247.2" cy="299.96" rx="121.39" ry="161.79"/>
              <ellipse class="cls-20" cx="166.53" cy="341.81" rx="52.56" ry="63.2" transform="translate(-182.91 191.95) rotate(-40.81)"/>
              <g class="cls-23">
                <g class="cls-25">
                  <path class="cls-22" d="m175.85,350.42c-11.64,12.25-25.2,11.42-34.5,2.58-9.3-8.84-10.82-22.34.81-34.59,11.64-12.25,34.59-21.31,43.9-12.47,9.3,8.84,1.43,32.23-10.21,44.48Z"/>
                  <path class="cls-3" d="m172.65,295.09s-5.73,34.07,12.65,51.53"/>
                  <path class="cls-3" d="m186.47,288.46s-5.73,34.07,12.65,51.53"/>
                  <path class="cls-3" d="m158.41,301.31s-6.21,33.61,17.03,55.69"/>
                  <path class="cls-3" d="m145.48,308.78s-6.21,33.61,17.03,55.69"/>
                  <path class="cls-3" d="m132.26,310.8s-6.21,33.61,17.03,55.69"/>
                </g>
              </g>
              <g class="cls-28">
                <g class="cls-9">
                  <path class="cls-41" d="m309.95,382.45c10.06,19.83,3.06,36.28-12,43.92-15.06,7.64-32.47,3.58-42.53-16.25-10.06-19.83-11.18-52.29,3.88-59.93,15.06-7.64,40.59,12.43,50.65,32.26Z"/>
                  <path class="cls-11" d="m257.37,374.22c2.6,5.12.55,11.37-4.56,13.96-5.12,2.6-11.37.55-13.96-4.56-2.6-5.12-.55-11.37,4.56-13.96,5.12-2.6,11.37-.55,13.96,4.56Z"/>
                  <path class="cls-11" d="m309.54,404.22c1.74,3.42.37,7.6-3.05,9.33-3.42,1.74-7.6.37-9.33-3.05-1.74-3.42-.37-7.6,3.05-9.33,3.42-1.74,7.6-.37,9.33,3.05Z"/>
                  <path class="cls-11" d="m292.71,420.54c2.6,5.12.55,11.37-4.56,13.96-5.12,2.6-11.37.55-13.96-4.56-2.6-5.12-.55-11.37,4.56-13.96,5.12-2.6,11.37-.55,13.96,4.56Z"/>
                  <path class="cls-11" d="m263.09,407.67c1.73,3.42.37,7.6-3.05,9.33-3.42,1.73-7.6.37-9.33-3.05-1.74-3.42-.37-7.6,3.05-9.33,3.42-1.74,7.6-.37,9.33,3.05Z"/>
                  <path class="cls-11" d="m280.11,361.56c1.74,3.42.37,7.6-3.05,9.33-3.42,1.74-7.6.37-9.33-3.05-1.74-3.42-.37-7.6,3.05-9.33,3.42-1.74,7.6-.37,9.33,3.05Z"/>
                  <path class="cls-11" d="m265.07,347.26c1.73,3.42.37,7.6-3.05,9.33-3.42,1.73-7.6.37-9.33-3.05-1.74-3.42-.37-7.6,3.05-9.33,3.42-1.74,7.6-.37,9.33,3.05Z"/>
                  <path class="cls-11" d="m287.44,386.33c3.19,6.28.68,13.96-5.6,17.14-6.28,3.19-13.96.68-17.14-5.6-3.19-6.28-.68-13.96,5.6-17.14,6.28-3.19,13.96-.68,17.14,5.6Z"/>
                  <path class="cls-11" d="m301.83,354.91c1.98,3.91.42,8.69-3.49,10.67-3.91,1.98-8.69.42-10.67-3.49-1.98-3.91-.42-8.69,3.49-10.67,3.91-1.98,8.69-.42,10.67,3.49Z"/>
                  <path class="cls-11" d="m320.24,378.67c2.72,5.36.58,11.92-4.78,14.64s-11.92.58-14.64-4.78c-2.72-5.36-.58-11.92,4.78-14.64,5.36-2.72,11.92-.58,14.64,4.78Z"/>
                </g>
              </g>
              <g class="cls-14">
                <path class="cls-40" d="m251.21,46.5c-99.29,0-189.81,150.84-189.81,290.26s78.65,214.63,189.81,214.63,189.81-75.2,189.81-214.63S349.16,46.5,251.21,46.5Zm89.55,304.67c0,.1,0,.21,0,.31-.45.44-1.26,1.12-2.19,1.53-.34-.67-.63-1.34-.88-1.98,1.52.29,2.55.22,3.07.14Zm-.77,4.12s.06-.02.09-.03c-.02.03-.04.05-.06.08-.01-.01-.02-.03-.03-.04Zm-165.64-115c10.14-11.29,29.83-3.03,40.75-13.42,8.25-7.85,7.24-22.18,12.75-32.49,11.16-20.87,41-14.62,46.88,7.62,1.01,3.81,1.28,7.81,2.2,11.64,4.37,18.23,23.91,17.78,37.41,21.27,8.04,2.08,16.1,6.92,18.91,15.9,3.32,10.62-2.45,21.37-5.19,31.35-2.71,9.86-1.66,17.09,1.69,23.86-3.59,1.61-7.43,4.51-7.43,4.51,3.75-1.77,6.5-2.39,8.51-2.48.33.58.68,1.17,1.04,1.75-.13,0-.27.02-.41.03.19.07.37.13.55.19.62.97,1.26,1.95,1.96,2.93-3.22.37-6.37-.16-6.37-.16,3.21,2.02,6.44,2.9,8.7,3.28.23.3.46.6.7.9-4.43,1.51-6.28,4.45-6.28,4.45,6.17-1.9,9.67.43,10.67,1.26.07.1.13.21.19.31-9.91,2.66-15.15.57-15.78.29,9.04,4.38,16.79,3.8,16.79,3.8-4.59.79-7.32,3.36-7.32,3.36,6.11-1.21,7.77.05,7.77.05-5.05,4.71-11.6,1.04-11.6,1.04,7.82,4.39,10.75,4.44,10.75,4.44-6.47-.22-12.57,4.21-12.57,4.21,9.5-1.18,12.3-.53,12.3-.53-1.25,1.32-2.52,2.23-3.75,2.87-.87-.59-1.45-.94-1.45-.94.41.38.76.75,1.12,1.11-4.44,2.14-8.24.64-8.24.64,3.5,2.68,8.52,2.38,10.62,2.1.09.11.18.23.26.34-1.34.9-2.64,1.49-3.86,1.83-.04-.19-.07-.29-.07-.29-.02.11-.03.22-.05.33-4.01,1.09-7.03-.25-7.03-.25,2.71,1.76,4.93,2.73,6.7,3.26-.04,1-.01,1.95.06,2.83-3.9.35-5.53-.55-5.53-.55,0,0,2.9,2.39,5.83,2.88.24,1.34.53,2.37.74,3.02-.04.05-.09.09-.13.14-3.22-4.79-7.48-5.6-7.48-5.6,3.44,4.32,3.29,7.95,2.91,9.69-.24.18-.49.36-.74.53-5.74-7.99-5.73-13.44-5.7-14.11-.63,8.09,1.45,14.2,2.27,16.26-.04.02-.08.05-.12.07-2.36-3.48-5.37-4.9-5.37-4.9,2.01,3.14,2.61,5.11,2.77,6.2-.35.16-.69.31-1.04.46-5.04-3.27-4.14-9.82-4.14-9.82-1.05,7.58-.46,10.68-.26,11.43,0,0-.01,0-.02,0-2.22-6-8.44-9.98-8.44-9.98,3.57,6.58,4.6,9.74,4.88,10.81-.21.04-.43.07-.64.1-7.2-3.34-7.18-9.79-7.18-9.79-1.17,4.05.72,8.4,1.78,10.39-.28.03-.55.06-.83.09-5.01-3.93-4.78-9.11-4.78-9.11-.65,3.18-.74,5.62-.58,7.47-1.41-2.17-2.95-4.06-2.95-4.06,1.55,3.01,2.21,5.2,2.42,6.78-.29.09-.57.18-.86.28-.24-.24-.45-.49-.62-.78-2.45-4.28-2.13-6.53-2.13-6.53,0,0-1.81,5.53.26,8.43-.29.17-.56.36-.83.55-.58-2.08-.57-4.03-.57-4.03-1.22,2.12-1.57,4.07-1.53,5.67-.56.52-1.09,1.08-1.59,1.67-2.35-1.54-4.56-1.61-4.56-1.61,1.49,1.35,2.38,2.68,2.91,3.87-.54.83-1.06,1.69-1.53,2.6-4.97-4.7-4.82-9.07-4.82-9.07-1.09,6.8,1.49,10.56,3.3,12.3-.04.1-.08.19-.12.29-2.45-1.08-4.6-.89-4.6-.89,2.03,1.09,3.19,2.04,3.85,2.75-.17.43-.33.87-.5,1.3-4.5-.53-6.37-5.2-6.37-5.2,1.11,5.24,2.77,7.29,3.81,8.08-4.34-1.94-9.81,0-9.81,0,7.68,1.26,9.37,3.19,9.37,3.19-6.08,2.95-10.41.34-10.41.34,1.88,3.25,5.39,3.89,7.35,3.98-.12.23-.24.46-.34.69-1.53.5-2.93.64-4.1.61-1.44-1.52-2.66-2.23-2.66-2.23.4.73.72,1.41.99,2.07-1.26-.22-2.01-.57-2.01-.57.94.93,1.81,1.65,2.63,2.24.48,1.56.62,2.85.6,3.85-1.36-.04-2.02-.28-2.02-.28,0,0,.83.53,1.97,1.06-.15,1.26-.54,1.89-.54,1.89-5.99-9.33-4.49-14.8-4.49-14.8-3.25,7.59,0,13.68,1.3,15.66-2.51-3.36-5.46-4.66-5.46-4.66,3.91,4.84,3.82,6.75,3.82,6.75-5.65-2.66-6.61-9.59-6.61-9.59-.09,5.91,1.11,8.89,1.97,10.27-3.93-4.37-9.91-5.45-9.91-5.45,3.24,2.41,5.31,4.31,6.62,5.7-.29.79-.58,1.53-.86,2.23-4.94-1.36-7.63-4.94-7.63-4.94.54,2.03,1.58,3.67,2.73,4.98-.75.36-1.46.78-2.13,1.26-1.55-1.08-2.43-2.07-2.43-2.07.52,1.04,1.03,1.94,1.53,2.76-2.54,2.09-4.34,4.73-5.28,6.33-.09,0-.17.01-.26.02,2.53-7.44,1.53-12.82,1.53-12.82-2.98,10.63-7.62,12.58-7.62,12.58,3.93-15.17,9.36-19.95,9.36-19.95-9.81,7.53-12.75,18.96-12.75,18.96,1.76-6.34,1.01-11.07,1.01-11.07-1.98,8.56-3.79,10.27-3.79,10.27-1.23-8.38,4.69-15.78,4.69-15.78-5.9,6.33-7.83,10.48-8.43,12.21,2.4-8.45.51-16.88.51-16.88-1.91,13.19-3.78,16.93-3.78,16.93-.73-1.95-1.09-3.89-1.24-5.73,1.62-.79,2.8-1.43,2.8-1.43-1.05.37-1.97.65-2.84.9-.33-6.02,1.74-10.81,1.74-10.81-1.5,1.95-2.56,4.21-3.31,6.42-.73-.58-1.5-.99-2.26-1.26.51-2.93,1.29-4.87,1.29-4.87-.97,1.64-1.77,3.14-2.45,4.54-1.43-.31-2.79-.23-3.84-.06.1-.39.19-.69.26-.89,3.62-2.64,4.99-5.81,4.99-5.81-6.33,4.51-9.99,2.83-9.99,2.83,8.55-7.06,14.16-6.22,14.16-6.22-7.92-2.32-13.58,1.63-15.39,3.15,3.03-2.89,3.97-5.97,3.97-5.97-4.34,4.46-6.25,4.6-6.25,4.6,1.96-5.93,8.73-7.71,8.73-7.71-5.87.61-8.69,2.16-9.96,3.18,3.87-4.43,4.23-10.49,4.23-10.49-.59,1.03-1.14,1.95-1.66,2.77-2.18,1.44-3.94,2.38-5.35,2.99.98-4.53,3.83-7.26,3.83-7.26-1.25.5-2.32,1.19-3.23,1.96-.96-.46-1.9-.7-2.8-.78.85-1.57,1.68-2.5,1.68-2.5-1.33.88-2.42,1.71-3.36,2.5-1.26.12-2.37.49-3.23.87-.11-.15-.23-.3-.34-.45,3.24-3.61,3.84-7.36,3.84-7.36-2.37,2.78-4.49,4.09-6.08,4.7-.46-.49-.94-.96-1.42-1.41,5.9-7.1,10.71-7.59,10.71-7.59-6.81-.26-11.08,3.25-13.14,5.57-.07-.05-.14-.1-.22-.16,1.48-2.95,1.6-5.35,1.6-5.35-1.22,2.11-2.24,3.48-3.03,4.37-.45-.29-.92-.57-1.4-.84,1.56-4.65,6.07-7.15,6.07-7.15-5.55,2.03-7.9,4.22-8.88,5.52,2.67-5.24,1.54-11.21,1.54-11.21-1.71,6.13-3.29,9.1-4.13,10.36-.3-.11-.61-.22-.92-.33-1.38-5.99,1.58-10.71,1.58-10.71-3.99,2.88-5.04,7.55-5.32,9.59-.14-.04-.27-.07-.41-.11-.29-1.27-.36-2.5-.31-3.64,1.19-1.33,1.97-2.3,1.97-2.3-.69.65-1.33,1.21-1.94,1.75.26-3.2,1.46-5.5,1.46-5.5-3.52,3.86-4.91,6.71-5.44,8.58-.52-.14-1.04-.28-1.55-.42,0-1.11.05-2.06.15-2.86,1.62-.91,2.85-1.41,2.85-1.41-.89-.1-1.78-.06-2.64.07.24-1.16.5-1.75.5-1.75,0,0-.53.77-1.15,1.87-2.23.46-4.21,1.47-5.44,2.22-.09-.04-.19-.07-.28-.11,4.01-3.99,5.14-7.76,5.14-7.76-5.07,5.47-8.6,5.77-9.23,5.77-.02-.01-.05-.03-.07-.04,7.75-8.71,12.97-10.04,12.97-10.04-9.08,1.66-14.93,8.27-14.93,8.27,3.33-3.62,4.44-7.02,4.44-7.02-4.23,5.02-6.01,5.53-6.01,5.53,2.04-5.99,8.49-8.89,8.49-8.89-6.08,2.2-8.77,4.3-9.76,5.25,1.76-1.89,3.08-4,4.03-5.87.14.03.23.05.23.05-.08-.03-.14-.05-.22-.08,1.45-2.87,2.04-5.15,2.04-5.15-1.32,1.86-2.46,3.38-3.45,4.63-.95-.36-1.82-.71-2.62-1.06,1.77-3.03,3.91-4.8,3.91-4.8-.85.4-1.64.9-2.39,1.45-.31-.76-.7-1.48-1.15-2.15.36-.37.6-.57.6-.57-.24.15-.45.3-.68.45-1.81-2.64-4.43-4.55-6.12-5.59.02-.11.02-.21.04-.32,6.5,2.12,11.17,1.26,11.17,1.26-5.97-1.68-8.91-3.94-10.28-5.41.1-.37.19-.75.3-1.11,12.61,3.53,16.65,8.11,16.65,8.11-5.23-6.83-12.53-9.98-15.64-11.08.01-.03.03-.07.04-.1,4.94,1.1,8.47.55,8.47.55-4.04-.94-6.38-1.83-7.7-2.47.16-.37.33-.74.49-1.1,6.69,0,12.2,4.4,12.2,4.4-5.33-4.98-8.95-6.84-10.69-7.52,0,0,0-.02.01-.02,7.52,2.03,14.92.38,14.92.38-7.42-1.08-11.53-2.15-13.58-2.8.27-.46.54-.92.81-1.37,6.81-1.46,12.89,1.16,12.89,1.16-3.4-2.63-7.87-3.77-10.97-4.27.24-.37.48-.75.72-1.12,5.46-.31,10,1.51,10,1.51-3.36-1.98-6.12-3.25-8.34-4.06.48-.73.95-1.46,1.42-2.2,2.63.38,3.96.89,3.96.89,0,0-1.42-.79-3.49-1.61,1.5-2.37,2.93-4.78,4.19-7.31,8.49-17.21-1.56-26.97-3.94-43.57-.97-6.75.24-14.21,4.63-19.09Zm89.16,177.28c-.1.21-.19.41-.29.62-1.64-.34-3.07-.95-4.25-1.63.49-.69.92-1.26,1.24-1.67,1.14,1.21,2.36,2.1,3.3,2.68Zm4.26-2.55c-.9-.05-1.74-.19-2.53-.38.23-.89.41-1.65.54-2.22,1.6,1.72,1.99,2.6,1.99,2.6Zm15.05-11.11c.01.49.05.93.1,1.3-.04.05-.07.11-.1.16-.02,0-.04.01-.06.02-.26-.6-.54-1.16-.84-1.68.32.09.62.16.9.2Zm-17.7,14.53c-.31-.02-.61-.05-.91-.09.03-.11.06-.21.09-.32.49.27.81.4.81.4Zm-4.51,2.8c-.4.12-.81.23-1.21.33l.21-.34-.53.42c-.44.11-.87.23-1.32.33-.64-.34-1.14-.66-1.53-.92.54-1.06,1.13-2.05,1.69-2.94.98,1.4,1.89,2.4,2.69,3.12Zm-4.55.16c.19.24.4.5.64.78-.37.07-.74.15-1.11.21.15-.34.31-.67.47-.99Zm-50.36-34.33c.32-.13.65-.26,1-.39-.26.49-.46.94-.62,1.31-.13-.26-.26-.52-.39-.77,0-.05,0-.1,0-.15Zm1.22-.79c-.4-.05-.76-.1-1.1-.13.15-.91.38-1.76.66-2.54,1.31-.57,2.54-.91,3.34-1.08-1.31,1.21-2.25,2.58-2.91,3.75Zm2.47,5.06c-.05-.77-.02-1.5.04-2.2,2.39-1.78,4.81-3.93,5.54-4.59-3.55,5.58-5.59,6.79-5.59,6.79Zm10.45,14.22c.85-.43,1.6-.9,2.29-1.4-.11.21-.26.51-.44.88-1.12.22-1.85.52-1.85.52Zm8.1,6.16c-.48.09-.92.15-1.32.19-.13-1.7-.06-3.32.11-4.78.97-.08,1.81-.08,2.36-.05-.53,1.65-.9,3.24-1.14,4.64Zm-4.8-.05c-.97-.38-1.11-.95-1.11-.95.58-.09,1.04-.15,1.49-.22-.14.41-.26.8-.37,1.17Zm3.64,1.75c.32-.13.64-.26.96-.4-.28,2.01-.31,3.35-.31,3.35-.29-.99-.5-1.98-.64-2.95Zm-2.92-3.9c-.79-.28-1.53-.51-2.58-.81h0c1.09-.64,2.29-1.04,3.43-1.28-.32.74-.61,1.44-.85,2.09Zm-63.42-60.39c-.5-.23-.96-.45-1.39-.66.83-1.4,1.72-2.54,2.44-3.35.86.62,1.51,1.13,1.82,1.39-1.08.81-2.04,1.72-2.87,2.63Zm-.74,7.04c.26-2.24,1.01-4.21,1.91-5.86,1.06.29,2.02.53,2.77.72-3.22,4.07-4.67,5.14-4.67,5.14Zm-2.28-3.06c-.06-.17-.12-.33-.18-.5.33-1.16.78-2.24,1.29-3.21.44.14.88.28,1.31.41-1.12,1.31-1.94,2.53-2.42,3.31Zm-1.66-8.34l.47.29c-.15.12-.3.24-.45.37-.02-.22,0-.44-.02-.66Zm.48,4.04c-.01-.07-.03-.13-.04-.2.06.02.12.04.18.06-.05.04-.09.09-.14.13Zm1.25-1.15c-.59-.33-1.11-.65-1.57-.95-.02-.18-.04-.36-.06-.54.25-.35.49-.66.7-.92l.58.35-.43-.54c.67-.82,1.1-1.19,1.1-1.19,0,0-.52.35-1.29.95l-.79-.99c-.01-.67,0-1.34.03-2.01,2.08.9,3.97,2.07,5.37,3.04-1.46,1-2.65,1.94-3.64,2.79Zm16.46,19.62c.51-.39,1.02-.75,1.53-1.08-.2.46-.38.92-.53,1.38-.33-.1-.67-.2-1-.3Z"/>
                <path class="cls-40" d="m326.13,349.48s0-.05,0-.07c0,0,0,.02,0,.07Z"/>
                <ellipse class="cls-15" cx="136.57" cy="265.61" rx="41.28" ry="47.29" transform="translate(-145.78 362.98) rotate(-81.82)"/>
                <path class="cls-40" d="m325.8,323.27s-.04-.02-.06-.03c0,0,.02.01.06.03Z"/>
                <path class="cls-34" d="m108.65,266.64s14-48.61,31.95-40.75c17.71,7.75-26.89,46.59-26.89,46.59,0,0,45.13-33.24,52.37-19.32,7.72,14.84-49.64,26.73-49.64,26.73l-7.79-13.24Z"/>
              </g>
              <path class="cls-4" d="m405.32,252.49s-58.84,13.01-60.83-10.25c-1.97-22.95,64.06,1.63,64.06,1.63,0,0-60.46-28.32-50.02-43.81,11.14-16.52,56.21,36.74,56.21,36.74l-9.42,15.69Z"/>
              <ellipse class="cls-19" cx="315.89" cy="341.81" rx="41.28" ry="47.29" transform="translate(-67.4 605.83) rotate(-81.82)"/>
              <ellipse class="cls-18" cx="203.6" cy="158.73" rx="49.16" ry="56.32" transform="translate(17.51 337.67) rotate(-81.82)"/>
              <g class="cls-27">
                <g class="cls-33">
                  <path class="cls-11" d="m197.15,427.57c-1.17,23.13-16.02,34.36-33.58,33.47-17.56-.89-31.19-13.57-30.02-36.7,1.17-23.13,16.96-53.04,34.52-52.15,17.56.89,30.25,32.24,29.07,55.37Z"/>
                  <path class="cls-3" d="m144.44,372.88s24.45,40.54,59.15,42.3"/>
                  <path class="cls-3" d="m152.9,353.66s24.45,40.54,59.15,42.3"/>
                  <path class="cls-3" d="m135.19,392.07s23.54,40.5,67.41,42.72"/>
                  <path class="cls-3" d="m128.39,411.37s23.54,40.5,67.41,42.72"/>
                  <path class="cls-3" d="m116.46,425.27s23.54,40.5,67.41,42.72"/>
                </g>
              </g>
              <path class="cls-5" d="m320.96,319.44s.92,2.47.84-8.11c-.09-10.58,5.81-18.8,11.17-20.73,0,0,1.54,6.76-.85,11.42,0,0,4.37-8.14,9.21-9.31,0,0,2.56,18.7-1.93,26.2-4.49,7.5-4.36,7.03-1.82,9.85,2.54,2.81,7.18,9.63,4.14,17.73,0,0,1.67,7.4,14.91,9.66,13.24,2.26,32.36,24.34,29.34,45.02,0,0,7.32-4.3,10.14,3.31,2.82,7.61-2.28,17.66-11.91,15.8,0,0-1.78-1.2-3.91-.78-2.13.42-3.86,4.29-9.35,5.36-5.5,1.08-50.35,10.97-50.68,8.16-.33-2.8,8.36-8.04,18.39-9.78,0,0-9.39-10.74-7.19-17.57,0,0-14.34,16.93-17.2,9.11,0,0,8.15-10.21,5.36-22.24-2.8-12.03-7.62-16.38-5.42-25.42,0,0,.58-7.18-4.73-6.14-5.31,1.04-17.08-.41-13.5-13.69,3.97-14.68,7.65-21.8,25-27.85Z"/>
              <g class="cls-12">
                <path class="cls-39" d="m251.21,13.54c-112.25,0-214.59,170.54-214.59,328.16s88.92,242.65,214.59,242.65,214.59-85.02,214.59-242.65S361.94,13.54,251.21,13.54ZM92,369.3c-.38.24-.76.5-1.14.77.02-.47.06-.94.1-1.41l1.05.63Zm3.52-1.64c1.36.84,2.51,1.65,3.34,2.28-1.89.95-3.46,1.87-4.76,2.72-.9-.48-1.68-.93-2.35-1.35,1.54-1.7,2.84-2.89,3.76-3.65Zm-3.24,1.45l-1.25-1.57c.07-.71.15-1.41.24-2.12,1.39.6,2.71,1.31,3.88,2.02-.81.43-1.8.98-2.88,1.67Zm-1.49,3.85c.62.24,1.25.47,1.88.68-.71.52-1.31,1-1.82,1.44-.03-.71-.05-1.42-.06-2.12Zm5.54,1.85c.68.2,1.33.38,1.95.55-3.07,2.53-4.99,4.92-4.99,4.92.78-2.06,1.86-3.89,3.04-5.47Zm11.51,27.05c.07-.04.13-.08.19-.12,0,.01-.01.03-.02.04-.1.05-.17.09-.17.09Zm12.24,7.86c0-.82.05-1.62.14-2.4,1.27-.85,2.49-1.72,3.59-2.54-2.51,3.79-3.73,4.95-3.73,4.95Zm-4.1-4.31l.72-.29c-.59,1.2-.9,1.98-.9,1.98.04-.57.1-1.14.18-1.69Zm.8-.44h-.72c.2-1.17.48-2.31.83-3.38.83-.32,1.61-.6,2.33-.83-1.05,1.59-1.86,3.07-2.43,4.21Zm-6.03.12h-.52c.24-.17.5-.34.75-.51-.09.18-.16.35-.23.51Zm27.5,10.71c-.32.29-.63.56-.94.81-.45-.87-.9-2.13-.7-3.55.02-.14.04-.27.06-.41,4.95-5.67,8.71-8.06,10.25-8.87-6.23,5.61-8.12,9.74-8.67,12.01Zm73.25,73.61c-.22.06-.43.11-.64.16-.29-2.66-.25-5.26,0-7.69,1.2-.15,2.18-.2,2.79-.22-1.11,3.16-1.78,5.95-2.15,7.75Zm-8.35-.26c-.24-.22-.47-.44-.7-.65.33-.08.63-.15.92-.22-.08.31-.16.61-.22.88Zm.92-3.1c-.81-.19-1.67-.37-2.7-.57,0-.07,0-.13.01-.2,0-.07.02-.13.03-.2,1.19-.79,2.47-1.4,3.76-1.86-.45,1.03-.81,1.97-1.11,2.83Zm-5.86-5.48c.81-.51,1.56-1.04,2.26-1.59-.12.26-.24.53-.37.8-1.17.41-1.89.79-1.89.79Zm-17.53-22.42c-.42-.8-.84-1.61-1.26-2.42,1.48-.63,3.13-1.45,4.76-2.34-1.5,2.37-2.69,3.87-3.5,4.76Zm-5.25-10.43c-.21-.41-.43-.84-.64-1.24,1.52-.87,3.15-1.48,4.71-1.9-1.08,1.11-2,2.28-2.75,3.44-.43-.1-.86-.2-1.32-.3Zm92.55,53.26c-.47.76-.93,1.49-1.37,2.15-3.28-1.22-5.51-2.51-6.87-3.44,1.3-1.56,2.48-2.84,3.38-3.77,1.83,2.45,3.49,4.03,4.86,5.06Zm5.98-5.54c-.67-.03-1.32-.11-1.95-.2.09-.23.17-.45.25-.67,1.03.58,1.7.87,1.7.87Zm49.9-62.05c-.09-.25-.19-.51-.28-.78.17.19.32.37.45.54-.05.08-.11.16-.16.24Zm-4.28,6.79s-.09,0-.13,0c-.12-.11-.23-.23-.35-.34.13.05.24.09.35.12.05.08.09.15.13.21Zm-17.06,33.87c-.14.03-.26.05-.4.08-.56-1.25-1.19-2.39-1.84-3.42.76.33,1.46.57,2.09.73-.01,1,.06,1.88.15,2.61Zm-31.76,28.5c-.68.24-1.36.45-2.04.67.2-.46.4-.91.6-1.36.56.32,1.04.54,1.44.69Zm-11.39-2.4c.99,1.28,2.47,3.01,4.16,4.52-2.79.66-5.6,1.15-8.44,1.46,1.35-2.21,2.86-4.24,4.28-5.98Zm102.78-85.67c-.91,1.17-1.74,1.36-1.74,1.36.18-1.5.31-2.48.49-3.67.42.88.84,1.65,1.25,2.31Zm4.66-4.2c-.22-1.74-.59-3.6-.98-5.3,2.94,4.41,6.77,7.23,6.77,7.23-2.23-.44-4.14-1.12-5.79-1.94ZM122.13,199.59c17.04-18.98,50.14-5.1,68.5-22.56,13.86-13.19,12.17-37.28,21.44-54.6,18.76-35.08,68.91-24.57,78.79,12.81,1.69,6.4,2.15,13.13,3.7,19.57,7.35,30.63,40.2,29.88,62.88,35.75,13.51,3.5,27.06,11.63,31.78,26.72,5.58,17.85-4.11,35.92-8.72,52.69-7.54,27.43,2.16,42.77,18.24,62.52,2.83,3.48,5.46,7.14,7.48,11.3,2.17,4.47,3.41,9.27,3.86,14.17-5.73-3.4-15.85-5.4-15.85-5.4,17.46,7.48,15.35,15.18,15.35,15.18-1.87-2.03-2.83-3.02-4.77-4.94,1.53,3.67,2.21,5.57,3.38,9.44-6.08-2.95-11.05-10.94-11.05-10.94,1.79,10.94,8.26,17.94,8.26,17.94-7.85-6.25-15.3-5-15.3-5,10.63,6.47,9.85,14.83,9.85,14.83-13.88-9.1-16.97-17.7-17.31-18.75,4.36,15.53,13.31,24.22,13.31,24.22-5.83-4.67-11.84-5.22-11.84-5.22,7.95,6.05,8.2,9.39,8.2,9.39-11.03-1.05-13.6-12.82-13.6-12.82,3.05,14.07,6.11,17.64,6.11,17.64-6.63-8.01-18.45-10.62-18.45-10.62,11.54,10.15,13.73,14.21,13.73,14.21-8.83-.29-13.53-4.67-15.78-7.78-.05-.17-.08-.27-.08-.27,0,.06,0,.11.02.17-1.21-1.7-1.69-3.01-1.69-3.01.17,2.34.91,4.54,1.93,6.51.08,2.43-.03,4.41-.27,6.02-5.16-3.61-6.67-8.35-6.67-8.35.72,4.8,1.83,8.37,2.99,11.02-1.06,1.51-1.79,2.61-2.65,4.04-.56-.51-1.06-1-1.52-1.47-.29-4.56,1.61-9.27,1.61-9.27-2.21,1.75-3.67,3.64-4.67,5.45-.93-1.51-1.12-2.38-1.12-2.38,0,0,.03,1.62.45,3.76-1.44,3.36-1.32,6.27-1.22,7.27-.02,0-.04,0-.07,0-2.16-7.47-8.23-10.08-8.23-10.08,2.33,4.72,2.31,8.42,1.77,10.88-1.02.17-2.03.37-3.03.61-5.34-10.54-2.33-17.42-2.33-17.42-5.08,8.56-4.27,15.21-2.84,19.12-.34.15-.68.29-1,.45-2.66-2.23-5.21-2.97-5.21-2.97,1.38,1.63,2.34,3.02,3.03,4.18-1.01.62-1.96,1.31-2.87,2.05-3.96-3.87-4-9.74-4-9.74-1.21,7.12-.51,11.1.39,13.26-.06.07-.12.14-.18.21-2.24-3.16-5.73-6.57-5.73-6.57,1.19,1.76,2.05,3.29,2.67,4.61-5.07-2.78-10.88-3-10.88-3,5.48,3.28,8.51,5.9,10.17,7.67-.13,1.03-.21,1.85-.27,2.69-.71-.01-1.38-.06-2.03-.13-1.44-2.76-1.79-5.91-1.79-5.91-.86,2-1.15,3.81-1.14,5.39-5.85-1.5-8.58-5.06-8.58-5.06.55,3.73,2.66,6.31,4.87,8.04-2.02-.57-3.51-.44-3.51-.44,1.44,1.02,2.48,2.07,3.25,3.09-3.23-.72-5.58-2.09-6.97-3.11-.66-1.58-.75-2.61-.75-2.61-.03.71-.02,1.38,0,2.02-.47-.39-.72-.65-.72-.65.26.6.53,1.14.8,1.68.49,5.79,3.08,9.08,5.11,10.79-5.49-1.25-7.54-3.1-7.54-3.1,0,0,1.13,1.64,2.84,3.33-.35.04-.56.08-.56.08.42.16.8.33,1.16.49,1.27,1.16,2.78,2.24,4.35,2.75.59.61.7.99.7.99-6.51,1.24-9.98-5.17-9.98-5.17,2.06,6.1,4.33,8.31,5.68,9.12-5.45-1.71-11.71,1.37-11.71,1.37,9.35.43,11.64,2.49,11.64,2.49-.24.15-.47.28-.7.41.03-.12.04-.21.04-.21-.18.15-.32.31-.49.47-6.31,3.42-11.23,1.2-11.23,1.2,2.2,2.94,5.44,3.67,7.85,3.75-.2.5-.36,1-.49,1.49-1.73.56-3.29.72-4.55.71-2.88-3.55-5.67-5.17-5.67-5.17,5.98,10.96,2.6,16.46,2.6,16.46-9.61-14.98-7.2-23.75-7.2-23.75-5.21,12.15-.02,21.92,2.07,25.11-4.03-5.38-8.75-7.46-8.75-7.46,6.28,7.76,6.14,10.84,6.14,10.84-9.07-4.27-10.61-15.39-10.61-15.39-.15,9.48,1.78,14.27,3.17,16.48-6.31-7.01-15.91-8.75-15.91-8.75,11.98,8.89,14.02,13.52,14.02,13.52-10.96-.65-17.01-8.73-17.01-8.73,1.87,7.05,7.47,11.23,10.59,13.08-.14.27-.29.55-.44.82-8.01-1.46-13.09-7.22-13.09-7.22,1.46,2.91,2.88,5.25,4.22,7.14-6.74,2.57-11.83,8.41-14.15,11.48-.13,0-.27,0-.4,0,5.52-11.45,4.95-20.3,4.95-20.3-6.77,16.38-14.52,18.61-14.52,18.61,9.13-23.44,18.69-30.03,18.69-30.03-17.06,10.14-23.91,27.81-23.91,27.81,4.01-9.78,3.71-17.46,3.71-17.46-4.77,13.27-7.99,15.65-7.99,15.65-.37-13.59,10.47-24.26,10.47-24.26-10.36,8.78-14.27,14.93-15.65,17.67,5.33-12.96,3.92-26.62,3.92-26.62-5.54,20.66-9.22,26.27-9.22,26.27-.48-1.97-.74-3.91-.86-5.8,2.02-1.24,3.4-2.15,3.4-2.15-1.22.56-2.36,1.04-3.43,1.47-.46-11.46,4.84-20.63,4.84-20.63-4.13,4.21-6.82,9.74-8.53,14.51-.88-.62-1.77-1.11-2.66-1.47,1.22-7.76,4.32-13.4,4.32-13.4-3.68,4.83-6.29,8.98-8.15,12.45-1.74-.17-3.38,0-4.77.28.21-.91.42-1.74.64-2.51,4.34-4.36,5.78-8.73,5.78-8.73-1.27,1.09-2.48,1.98-3.63,2.73.03-.07.06-.11.06-.11,0,0-.04.05-.1.14-7.35,4.8-11.9,3.19-11.9,3.19,12.66-12.51,21.75-11.96,21.75-11.96-12.96-2.58-21.45,4.52-24.14,7.23,4.43-5.06,5.49-10.1,5.49-10.1-6.3,7.75-9.33,8.25-9.33,8.25,2.29-9.76,12.86-13.57,12.86-13.57-9.3,1.82-13.59,4.69-15.47,6.51,2.23-3.06,3.52-6.46,4.26-9.44,2.67-1.61,4.63-2.9,4.63-2.9-1.6.73-3.06,1.34-4.39,1.85.85-3.93.76-6.89.76-6.89-1.5,3.27-2.87,5.9-4.09,8.05-2.64.81-4.65,1.15-6.17,1.21.17-1,.39-1.93.65-2.82.18-.04.36-.07.56-.11-.17-.05-.33-.1-.49-.15.62-2.02,1.41-3.72,2.15-5.04,2.56-.41,4.45-.36,4.45-.36-1.01-.79-2.04-1.37-3.08-1.8.42-.58.7-.91.7-.91-.43.22-.83.46-1.23.71-2.42-.9-4.8-.99-6.84-.75.54-.93.93-1.45.93-1.45-.68.54-1.32,1.08-1.92,1.6-1.34.24-2.48.6-3.3.91-.05-.08-.09-.16-.14-.23,7.25-5.09,9.48-11.84,9.48-11.84-6.19,5.3-10.92,6.21-13.47,6.21-.35-.43-.71-.84-1.06-1.26,12.12-11.47,20.71-10.96,20.71-10.96-12.96-2.58-21.45,4.52-24.14,7.23,4.43-5.06,5.49-10.1,5.49-10.1-4.09,5.04-6.8,7-8.2,7.77-.27-.22-.53-.44-.8-.66,2.81-8.91,12.52-12.43,12.52-12.43-9.31,1.82-13.59,4.69-15.47,6.51,5.55-7.63,5.26-17.37,5.26-17.37-4.19,9.14-7.41,13.45-9.07,15.29,1.59-2.27,2.63-3.93,2.63-3.93-1.45,1.73-2.77,3.2-3.96,4.45-1.25-10.48,5.09-17.75,5.09-17.75-7.92,4-10.55,12.53-11.13,14.83-.07.02-.13.04-.2.06-1.19-9.14,4.19-16.38,4.19-16.38-1,.8-1.91,1.57-2.75,2.32-3.7,1.23-6.92,3.01-9.59,4.89.95-3.57,2.06-5.25,2.06-5.25,0,0-3.97,4.05-5.87,8.3-1.61,1.44-2.88,2.78-3.79,3.83-.09-.02-.17-.04-.26-.07,2.82-4.65,3.56-8.37,3.56-8.37-2.84,4.35-4.85,6.58-6.06,7.7-.35-.1-.7-.19-1.06-.29,2.37-7.9,10.01-12.53,10.01-12.53-8.13,4.12-11.55,7.52-12.77,9.01,2.31-3.17,3.86-6.61,4.87-9.53.42-.35.68-.57.68-.57-.21.14-.41.26-.62.39,1.32-3.88,1.71-6.8,1.71-6.8-2.05,3.78-3.76,6.68-5.16,8.9-1.63.94-3.06,1.69-4.32,2.29.4-2.08,1.06-3.98,1.81-5.64.23-.05.35-.08.35-.08-.09-.03-.19-.04-.28-.07,1.92-4.16,4.36-6.74,4.36-6.74-2.64,1.66-4.82,4.02-6.52,6.33-.82-.09-1.64-.11-2.45-.08,1.95-4.55,4.63-7.53,4.63-7.53-3.79,3.1-6.38,5.78-8.17,7.97-1.21.25-2.31.57-3.25.88.2-.46.39-.9.58-1.32,5.09-4.06,7.09-7.99,7.09-7.99-1.53,1.15-2.94,2.06-4.24,2.8.58-.85.93-1.25.93-1.25,0,0-.75.65-1.83,1.75-6.03,3.19-9.3,2.36-9.3,2.36,13-10.18,20.61-10.7,20.61-10.7-13.03.02-22.81,7.7-22.81,7.7,5.54-4.18,7.94-8.62,7.94-8.62-7.14,5.89-9.75,6.16-9.75,6.16,4.34-7.8,14.03-10.2,14.03-10.2-8.99,1.52-13.26,3.76-14.87,4.82,7.42-5.54,11.24-13.8,11.24-13.8-10.04,9.81-14,11.75-14,11.75.98-3.21,2.64-5.87,4.4-7.98,1.42.35,2.32.54,2.32.54-.74-.27-1.44-.53-2.11-.79,3.24-3.81,6.7-5.75,6.7-5.75-3.44.91-6.56,2.87-9.03,4.82-.69-.29-1.33-.57-1.94-.84,1-1.25,2.04-2.34,3.01-3.24.21.17.34.28.34.28-.05-.14-.12-.28-.18-.42,2.23-2.03,4.04-3.11,4.04-3.11-1.69.68-3.2,1.36-4.56,2.02-1.95-3.68-5.44-6.34-7.72-7.77.03-.15.06-.3.09-.45,7.4,2.33,12.68,1.37,12.68,1.37-6.45-1.82-9.85-4.2-11.59-5.91.14-.52.29-1.04.44-1.55,14.3,4.09,18.91,9.31,18.91,9.31-5.85-7.64-13.94-11.33-17.77-12.74.02-.06.04-.12.06-.17,5.52,1.15,9.42.54,9.42.54-4.35-1.01-7.01-1.98-8.61-2.71.19-.49.39-.97.59-1.45,7.62.16,13.83,5.12,13.83,5.12-6.04-5.64-10.19-7.84-12.27-8.68,0-.02.01-.03.02-.05,8.7,2.29,17.19.39,17.19.39-8.63-1.26-13.42-2.5-15.81-3.26.26-.52.53-1.05.8-1.57,7.99-1.77,15.15,1.32,15.15,1.32-4.09-3.17-9.51-4.48-13.13-5.03.02-.04.04-.08.06-.11.21-.37.44-.74.66-1.11,6.57-.51,12.12,1.74,12.12,1.74-4.18-2.47-7.56-3.98-10.22-4.91.51-.83,1.03-1.65,1.55-2.47,3.5.44,5.22,1.13,5.22,1.13,0,0-1.91-1.06-4.62-2.09,4.95-7.74,10.22-15.25,14.32-23.55,14.27-28.92-2.62-45.33-6.62-73.23-1.62-11.34.41-23.89,7.78-32.09Z"/>
                <path class="cls-38" d="m382.63,370.32s-.02-.07-.03-.11c0,0,.01.04.03.11Z"/>
              </g>
              <ellipse class="cls-17" cx="105.97" cy="437.53" rx="41.28" ry="47.29" transform="translate(-342.19 480.14) rotate(-81.82)"/>
              <ellipse class="cls-21" cx="289.59" cy="508.14" rx="41.28" ry="47.29" transform="translate(-254.6 722.45) rotate(-81.82)"/>
              <g class="cls-35">
                <g class="cls-26">
                  <path class="cls-22" d="m448.8,310.21c17.32,14.11,17.59,32.06,6.87,45.21-10.71,13.15-28.35,16.52-45.66,2.41-17.32-14.11-31.57-43.45-20.86-56.6,10.71-13.15,42.33-5.13,59.65,8.98Z"/>
                  <path class="cls-3" d="m376.2,320s45.48,4.12,66.64-21.86"/>
                  <path class="cls-3" d="m366.08,302.45s45.48,4.12,66.64-21.86"/>
                  <path class="cls-3" d="m385.84,338.14s44.92,4.8,71.68-28.05"/>
                  <path class="cls-3" d="m396.97,354.44s44.92,4.8,71.68-28.05"/>
                  <path class="cls-3" d="m400.97,371.65s44.92,4.8,71.68-28.05"/>
                </g>
              </g>
              <g class="cls-1">
                <g class="cls-37">
                  <path class="cls-41" d="m402.92,435.86c2.59,22.09-9.67,35.1-26.44,37.07-16.77,1.97-31.71-7.86-34.3-29.94-2.59-22.08,7.57-52.93,24.35-54.9,16.77-1.97,33.8,25.69,36.39,47.78Z"/>
                  <path class="cls-11" d="m356.42,409.96c.67,5.7-3.41,10.86-9.11,11.53-5.7.67-10.86-3.41-11.53-9.11-.67-5.7,3.41-10.86,9.11-11.53,5.7-.67,10.86,3.41,11.53,9.11Z"/>
                  <path class="cls-11" d="m395.01,456.15c.45,3.81-2.28,7.26-6.09,7.7s-7.26-2.28-7.7-6.09c-.45-3.81,2.28-7.26,6.09-7.7s7.26,2.28,7.7,6.09Z"/>
                  <path class="cls-11" d="m373.58,465.65c.67,5.7-3.41,10.86-9.11,11.53-5.7.67-10.86-3.41-11.53-9.11-.67-5.7,3.41-10.86,9.11-11.53,5.7-.67,10.86,3.41,11.53,9.11Z"/>
                  <path class="cls-11" d="m350.23,443.34c.45,3.81-2.28,7.26-6.09,7.7-3.81.45-7.26-2.28-7.7-6.09-.45-3.81,2.28-7.26,6.09-7.7,3.81-.45,7.26,2.28,7.7,6.09Z"/>
                  <path class="cls-11" d="m382.13,405.95c.45,3.81-2.28,7.26-6.09,7.7-3.81.45-7.26-2.28-7.7-6.09-.45-3.81,2.28-7.26,6.09-7.7,3.81-.45,7.26,2.28,7.7,6.09Z"/>
                  <path class="cls-11" d="m372.96,387.33c.45,3.81-2.28,7.26-6.09,7.7-3.81.45-7.26-2.28-7.7-6.09-.45-3.81,2.28-7.26,6.09-7.7,3.81-.45,7.26,2.28,7.7,6.09Z"/>
                  <path class="cls-11" d="m380.46,431.73c.82,7-4.19,13.33-11.18,14.15-7,.82-13.33-4.19-14.15-11.18-.82-7,4.19-13.33,11.18-14.15s13.33,4.19,14.15,11.18Z"/>
                  <path class="cls-11" d="m404.81,407.21c.51,4.35-2.61,8.3-6.96,8.81-4.36.51-8.3-2.61-8.81-6.96-.51-4.35,2.61-8.3,6.96-8.81,4.35-.51,8.3,2.61,8.81,6.96Z"/>
                  <path class="cls-11" d="m413.88,435.87c.7,5.97-3.57,11.38-9.55,12.08-5.97.7-11.38-3.57-12.08-9.55-.7-5.97,3.57-11.38,9.55-12.08,5.97-.7,11.38,3.57,12.08,9.55Z"/>
                </g>
              </g>
              <path class="cls-30" d="m276.73,469.79s-.35-26.5-22.84-34.39c0,0-1.4,7.64,3.26,16.2,0,0-10.83-14.45-20.32-15.81,0,0,5.93,29.53,19.02,39.2,0,0,0,11.55-8.72,8.86-8.72-2.69-15.51-12.5-32.49-8.96-16.98,3.54-40.81,17.48-40.48,43.2l1.55,10.2s-14.81,6.15-6.62,20.37c6.3,10.95,20.23.85,20.23.85,0,0-6.65,3.26,9.82,4.83,26.05,2.48,47.97-3.01,35.5-8.5-12.46-5.49-6.83-11.48,5.06-8.25,7.85,2.13,14.45,12,24.99,13.86,10.54,1.86,26.2-2.18,16.9-7.21-9.3-5.04-16.99-8.01-10.56-13.93,6.43-5.92,8.32-14.63,5.08-18.76,0,0,3.21,2.81,12.38,1.81,0,0,8.07-3.07,4.37-15.33,0,0-.84-25.18-16.14-28.24Z"/>
              <path class="cls-6" d="m65.31,439.62s-14.82-68.61,12.29-70.8c26.74-2.16-2.26,74.62-2.26,74.62,0,0,33.33-70.28,51.32-58.02,19.18,13.07-43.12,65.27-43.12,65.27l-18.22-11.07Z"/>
              <ellipse class="cls-16" cx="280.58" cy="231.42" rx="41.28" ry="47.29" transform="translate(11.57 476.2) rotate(-81.82)"/>
              <g class="cls-36">
                <path class="cls-3" d="m293.15,227.65c0,7.51,6.09,13.59,13.59,13.59s13.59-6.09,13.59-13.59-6.09-13.59-13.59-13.59-13.59,6.09-13.59,13.59Z"/>
                <path class="cls-3" d="m275.09,214.06c0,7.51,6.09,13.59,13.59,13.59s13.59-6.09,13.59-13.59-6.09-13.59-13.59-13.59-13.59,6.09-13.59,13.59Z"/>
                <path class="cls-3" d="m276.43,235.99c0,7.51,6.09,13.59,13.59,13.59s13.59-6.09,13.59-13.59-6.09-13.59-13.59-13.59-13.59,6.09-13.59,13.59Z"/>
                <path class="cls-3" d="m264.68,216.16c0,4.98,4.04,9.02,9.02,9.02s9.02-4.04,9.02-9.02-4.04-9.02-9.02-9.02-9.02,4.04-9.02,9.02Z"/>
                <circle class="cls-3" cx="257.92" cy="222.4" r="9.02"/>
                <path class="cls-3" d="m239.87,231.42c0,4.98,4.04,9.02,9.02,9.02s9.02-4.04,9.02-9.02-4.04-9.02-9.02-9.02-9.02,4.04-9.02,9.02Z"/>
                <path class="cls-3" d="m251.44,236.68c0,4.98,4.04,9.02,9.02,9.02s9.02-4.04,9.02-9.02-4.04-9.02-9.02-9.02-9.02,4.04-9.02,9.02Z"/>
                <path class="cls-3" d="m261.74,229.51c0,7.37,5.98,13.35,13.35,13.35s13.35-5.98,13.35-13.35-5.98-13.35-13.35-13.35-13.35,5.98-13.35,13.35Z"/>
              </g>
              <g class="cls-2">
                <path class="cls-7" d="m251.21,4.79C135.51,4.79,30.03,180.55,30.03,343.01s91.65,250.09,221.17,250.09,221.17-87.63,221.17-250.09S365.34,4.79,251.21,4.79Zm174.18,418.45c5.92-.26,7.45.78,7.45.78-1.68,1.14-3.27,1.66-4.57,1.86-.94-.93-1.93-1.83-2.88-2.64Zm4.41,4.27c1.34-.04,2.35-.34,2.35-.34-.61.42-1.22.75-1.81,1.01-.18-.22-.35-.44-.55-.67Zm2.13,3.15c.08-.02.14-.04.21-.07-.05.05-.11.1-.16.15-.01-.03-.03-.06-.04-.09Zm17.46-25.45c-.5.39-1.13.82-1.85,1.21-.95-.81-2.34-1.72-3.67-2.51,2.89.62,4.84.56,5.86.44-.11.29-.22.58-.34.86ZM86.32,172.02c21.77-24.25,64.05-6.51,87.5-28.82,17.71-16.85,15.55-47.63,27.38-69.75,23.96-44.81,88.03-31.39,100.65,16.37,2.16,8.18,2.75,16.77,4.72,25,9.39,39.13,51.35,38.17,80.32,45.67,17.26,4.47,34.56,14.86,40.59,34.14,7.13,22.8-5.25,45.88-11.14,67.31-9.21,33.51,1.72,52.9,20.67,76.59-6.46.87-16.8,7.83-16.8,7.83,17.25-7.2,21.62-1.27,21.62-1.27-2.77.05-4.15.1-6.89.26,3.77,1.15,5.65,1.81,9.34,3.31-6.26,2.3-15.57.9-15.57.9,9.41,5.26,18.97,5.08,18.97,5.08-9.92,1.54-13.94,7.23-13.94,7.23,11.93-3.25,17.69,2.2,17.69,2.2-16.08,3.87-24.59.85-25.6.45,14.56,6.25,27.05,5.42,27.05,5.42-7.39,1.13-11.8,4.8-11.8,4.8,9.84-1.72,12.51.08,12.51.08-8.13,6.71-18.68,1.49-18.68,1.49,12.6,6.26,17.31,6.33,17.31,6.33-10.43-.31-20.25,6.01-20.25,6.01,15.31-1.69,19.81-.76,19.81-.76-9.52,8.91-19.86,5.24-19.86,5.24,7.28,4.95,18.7,2.77,18.7,2.77-9.82,6.63-18.9,3.03-18.9,3.03,3.71,2.13,6.86,3.45,9.47,4.27,1.57,2.12,1.93,3.53,1.9,4.39-.32.03-.63.06-.93.08-.15-.3-.3-.61-.49-1.03-.03.4-.06.74-.07,1.06-.66.04-1.28.05-1.85.05-.63-1.25-.86-2.44-.86-2.44-.36.87-.51,1.67-.55,2.4-3.23-.17-4.64-.87-4.64-.87,0,0,2.05,1.5,4.81,2.71.41,1.61,1.33,2.51,1.33,2.51-2.8-2.28-6.07-1.73-6.07-1.73,4.11,2.16,3.75,5.07,3.75,5.07-6.16-2.54-6.73-6.32-6.73-6.32.08,6.28,4.34,8.05,5.3,8.37-2.55-.89-4.86-.24-4.86-.24,3.69.95,4.15,2.07,4.15,2.07-4.16,1.08-6.61-2.4-6.61-2.4,1.54,3.39,3.07,4.52,3.97,4.91-3.27-.61-6.84,1.11-7.41,1.41-2.35-2-4.39-3.45-4.39-3.45,2.22,2.37,3.75,4.42,4.8,6.19-.53-.06-.84-.15-.84-.15.4.41.84.72,1.3.96.44.82.77,1.57,1.01,2.27-1.38.15-2.3-.04-2.3-.04.98.57,1.87.98,2.66,1.27.22.96.26,1.77.2,2.44-.78.1-1.18.05-1.18.05,0,0,.47.15,1.14.31-.13.89-.44,1.47-.65,1.79-.09.07-.17.13-.26.2-.63-1.93-.99-2.92-1.72-4.83-.2,2.71-.38,4.2-.84,6.7-.15.1-.29.21-.44.31-3.21-4.11-3.94-10.69-3.94-10.69-2.1,6.04-1.24,11.49-.73,13.69-.08.05-.16.09-.24.14-3.62-6.13-9.15-7.76-9.15-7.76,3.5,5,3.36,8.92,2.77,11.15-.56.27-1.12.52-1.68.78-6.17-10.1-5.38-16.35-5.25-17.12-1.88,8.88-.35,16.1.52,19.11-.1.04-.21.08-.31.12-2.64-4.17-6.17-6.19-6.17-6.19,2.03,3.68,2.64,6.03,2.78,7.42-.56.19-1.12.38-1.68.56-5.97-4.72-3.89-12.13-3.89-12.13-2.82,9.94-2.03,13.48-1.97,13.74h0c-2.02-7.59-9.93-13.43-9.93-13.43,4.91,10.73,5.05,14.18,5.05,14.18-10.22-5.13-9.16-13.33-9.16-13.33-2.91,6.24,1.6,14.07,1.6,14.07-8.21-5.79-6.92-13.07-6.92-13.07-3.05,8.36-1.64,12.71-.95,14.12-.19.02-.37.05-.56.07-.57-.33-1.31-.82-2-1.43-.66-1.54-1.76-3.45-2.66-4.92-1.04-3.27-.6-4.85-.6-4.85,0,0-2.9,5.64-1.21,9.45-.35.42-.68.5-.68.5.02-.93.04-1.39.11-2.32-.75,1.13-1.09,1.71-1.7,2.86-1.13-2.24-.09-5.37-.09-5.37-3.51,2.84-2.42,6.37-2.42,6.37-1.35-3.35-4.49-4.44-4.49-4.44,2.56,3.87.84,6.25.84,6.25-4.17-5.2-2.84-8.79-2.84-8.79-2.96,5.54-.08,9.15.6,9.89-1.8-2.01-4.14-2.56-4.14-2.56,2.77,2.61,2.64,3.82,2.64,3.82-4.16-1.06-4.63-5.29-4.63-5.29-.29,3.71.51,5.45,1.11,6.22-2.81-2.31-7.27-2.35-7.27-2.35,5.43,2.67,6.27,4.34,6.27,4.34-5.13.48-7.79-2.27-7.79-2.27,1.01,3.71,5.67,4.69,5.67,4.69-.59.06-1.14.06-1.66.04-4.44-2.53-9.62-4.8-9.62-4.8,3.29,3.35,4.84,5.88,5.51,7.74-1.23-.39-1.77-.78-1.77-.78,0,0,.93.99,2.07,1.82.49,2.24-.43,3.2-.43,3.2-.84-1.4-1.25-2.12-2.03-3.57-.05,2.4-.02,3.58.16,5.88-3.81-2.28-5.21-7.94-5.21-7.94-2.57,7.57,2.39,11.82,2.39,11.82-5.19-3.73-10.9-2.42-10.9-2.42,7.48,3.38,7.16,8.55,7.16,8.55-11.15-3.84-12.54-10.46-12.54-10.46.73,10.2,7.34,13.29,9.72,14.07-4.38-1.07-8.1.24-8.1.24,6.61,1.29,7.54,3.22,7.54,3.22-7.22,2.35-11.92-3.54-11.92-3.54,3.07,5.82,5.9,7.67,7.53,8.25-6.38-.81-13.09,3.35-13.09,3.35,10.63-1.13,13.48.57,13.48.57-7.23,5.56-13.79,3.96-13.79,3.96,3.86,3.54,9.42,2.62,11.77,2.01.08.11.15.21.22.32-5.93,4.11-11.65,3.3-11.65,3.3,3.44,1.74,6.16,2.44,8.25,2.63-.26,1.04-.28,2.03-.14,2.91-1.29.42-2.32.65-3.09.77-2.23-.97-3.97-1.13-3.97-1.13,5.87,4.31,5.03,8.01,5.03,8.01-8.87-5.55-9.31-10.73-9.31-10.73-.51,7.63,4.66,11.51,6.57,12.68-3.53-1.86-6.77-1.82-6.77-1.82,5.37,2.57,5.94,4.21,5.94,4.21-6.28-.06-9.55-5.52-9.55-5.52,1.79,4.65,3.78,6.75,5.09,7.69.01.03.02.07.03.1-5.17-2.02-11.03-.68-11.03-.68,2.74.55,4.84,1.1,6.45,1.62-.85.98-1.35,1.99-1.62,2.98-3.36-.2-5.59-1.36-5.59-1.36,1.48,1.84,3.46,2.9,5.32,3.53.01.63.09,1.22.19,1.72-.24,0-.48,0-.71-.02-2.79-3.38-6.22-4.56-6.22-4.56,1.26,1.5,2.05,2.84,2.55,4-.91-.24-1.45-.47-1.45-.47.62.49,1.2.91,1.77,1.31.87,2.63.14,4.13.14,4.13-7.32-7.48-6.52-12.62-6.52-12.62-1.48,4.72-.28,8.46,1.18,10.96-.02.42-.03.84-.05,1.25-2.13-1.29-3.88-1.7-3.88-1.7,1.93,1.58,3.08,2.79,3.77,3.68-.03.5-.07.99-.11,1.46-5.2-1.95-6.86-7.26-6.86-7.26.23,1.77.57,3.21.95,4.41-.78.7-1.49,1.45-2.14,2.24-3.3-1.09-6.22-1.13-6.22-1.13,2.09.97,3.76,1.84,5.08,2.61-.67.95-1.25,1.92-1.77,2.9-3.04-1-4.81-2.55-4.81-2.55.91,1.95,2.39,3.37,3.9,4.4-.26.59-.51,1.17-.73,1.74-1.19-.36-2.18-.81-2.93-1.2-1.32-6.32-3.69-9.81-3.69-9.81,1.3,15.28-4.33,20.5-4.33,20.5-2.32-21.61,2.97-30.9,2.97-30.9-10.13,15.38-8.35,31.65-8.35,31.65-.8-9.11-4.36-14.67-4.36-14.67,1.65,12.05-.06,15.29-.06,15.29-6.16-9.92-1.54-22.83-1.54-22.83-5.14,11.54-5.73,17.96-5.7,20.51-.99-12.17-8.12-21.76-8.12-21.76,4.18,17.89,3.46,23.75,3.46,23.75-3.23-3.2-5.22-6.89-6.43-10.32,1.24-3.05,1.98-5.27,1.98-5.27-.81,1.56-1.58,2.97-2.32,4.25-1.83-5.8-1.53-10.62-1.53-10.62-1.7,5.04-1.6,10.39-1,14.73-.65.98-1.27,1.84-1.86,2.6-1.08-2.32-1.8-4.63-2.26-6.7.95-.92,1.57-1.46,1.57-1.46-.61.14-1.2.32-1.77.52-.77-3.93-.68-6.8-.68-6.8-.56,2.8-.92,5.29-1.18,7.56-2.01.93-3.79,2.14-5.31,3.4-.34-2.13-.31-3.27-.31-3.27,0,0-.26,1.55-.42,3.88-3.16,2.78-4.97,5.54-4.97,5.54,5.19-9.36,4.33-16.77,4.33-16.77-5.22,12.36-11.71,14.12-11.71,14.12,7-17.69,14.88-22.73,14.88-22.73-14.11,7.79-19.36,21.12-19.36,21.12,3.09-7.38,2.6-13.14,2.6-13.14-3.63,10.01-6.27,11.83-6.27,11.83-.73-10.2,8.11-18.32,8.11-18.32-8.68,6.85-11.76,11.58-12.77,13.57,4.19-9.83,2.57-20.17,2.57-20.17-4.05,15.56-6.99,19.81-6.99,19.81-1.27-3.99-1.24-7.84-.7-11.1.22-.08.37-.14.37-.14-.13.03-.23.05-.36.08.9-5.44,3.21-9.23,3.21-9.23-3.01,2.87-5.01,6.52-6.33,9.84-1.02.17-1.95.3-2.77.38.21-1.69.56-3.25.96-4.63.69.07,1.11.14,1.11.14-.3-.28-.6-.54-.91-.78.98-3.14,2.13-5.17,2.13-5.17-1.26,1.57-2.36,3.03-3.33,4.4-4.32-2.37-9.26-.94-9.26-.94,6.46-2.32,9.07-6.79,9.07-6.79-7.65,4.05-11.74,2.01-11.74,2.01,10.41-6.46,16.81-5.11,16.81-5.11-8.95-3.07-15.79.47-17.99,1.87,3.72-2.69,5.04-5.75,5.04-5.75-5.35,4.18-7.56,4.15-7.56,4.15,2.73-5.88,10.67-7.11,10.67-7.11-6.82.11-10.19,1.44-11.73,2.38,1.25-1.09,2.25-2.31,3.02-3.53,2.56-.58,4.4-1.07,4.4-1.07-1.44.16-2.76.28-3.98.36,1.83-3.19,2.26-6.11,2.26-6.11-2.17,2.86-3.98,4.86-5.4,6.25-1.27.02-2.4,0-3.39-.07.68-2.73,2.12-4.82,3.32-6.17,1.26.25,2.05.48,2.05.48-.4-.48-.83-.91-1.26-1.31.66-.64,1.13-.98,1.13-.98-.57.15-1.11.35-1.63.56-1.1-.92-2.28-1.61-3.47-2.12.11-.11.18-.17.18-.17-.09.05-.17.09-.26.13-4.82-2.03-9.7-1.19-9.7-1.19,9.1-2.16,13.3-7.8,13.3-7.8-10.98,4.32-16.2.93-16.2.93,15.08-7.15,23.53-4.35,23.53-4.35-11.62-5.51-21.4-1.78-24.62-.22,5.44-3.07,7.69-7,7.69-7-7.87,4.83-10.87,4.46-10.87,4.46,4.59-7.54,15.52-7.99,15.52-7.99-9.25-.89-14.01.39-16.24,1.43,7.14-4.92,9.28-13.12,9.28-13.12-9.24,9.7-13.86,11.09-13.86,11.09,1.15-9.48,9.31-14.09,9.31-14.09-9.85,1.5-14.48,9.94-14.48,9.94.92-8.22,8.1-13.03,8.1-13.03-5.93,2.11-9.54,4.25-11.76,6.05-.98.34-1.84.58-2.57.73-.29-.29-.6-.55-.9-.83.22-.46.45-.89.67-1.3.16-.05.32-.11.5-.16-.13-.02-.25-.03-.38-.05,1.3-2.33,2.54-3.81,3.34-4.64.93-.19,1.52-.26,1.52-.26-.29-.14-.58-.25-.87-.37.15-.13.24-.2.24-.2,0,0-.12.07-.32.17-5.09-2-9.87-.15-11.94.91-.06-.04-.12-.09-.18-.13,5.57-4.75,6.56-10.17,6.56-10.17-7.01,7.3-12.52,6.39-12.52,6.39,9.14-11.01,16.99-11.69,16.99-11.69-11.47-.39-17.77,6.04-19.69,8.4,3.11-4.37,3.33-8.33,3.33-8.33-4.33,6.64-6.86,7.38-6.86,7.38.63-7.67,9.15-11.84,9.15-11.84-7.72,2.5-10.99,5.2-12.35,6.8,3.71-6.45,2.14-13.8,2.14-13.8-3.47,11.03-6.59,13.76-6.59,13.76-2.88-8.03,1.78-14.59,1.78-14.59-7.24,4.63-7.55,13.05-7.55,13.05-.98-2.65-1.03-5.22-.72-7.38,3.89-3.47,6.72-6.41,6.72-6.41-2.36,1.85-4.48,3.41-6.39,4.73.63-2.57,1.62-4.26,1.62-4.26-2.83,2.75-4.66,5.07-5.85,7-1.45.87-2.74,1.57-3.87,2.12.11-4.25,1.19-6.39,1.19-6.39,0,0-1.53,1.99-2.78,4.33l-9.07,1.39c6.36-5.66,16.23-8.91,16.23-8.91-10.09-1.27-20.3,5.32-20.3,5.32,9.97-7.43,12.8-15.18,12.8-15.18-11.5,10.43-18.98,9.73-18.98,9.73,15.97-15.09,26.52-17.17,26.52-17.17-18.26,2.47-30.27,13.86-30.27,13.86,6.84-6.23,9.22-12.2,9.22-12.2-8.7,8.67-12.3,9.49-12.3,9.49,4.36-10.51,17.41-15.31,17.41-15.31-12.26,3.58-17.75,7.16-19.78,8.78,9.18-8.27,12.7-19.26,12.7-19.26-4.99,5.9-8.78,9.87-11.51,12.5-1.31-.43-2.57-.85-3.75-1.26,3.67-8.46,10.98-13.52,10.98-13.52-6.98,2.7-12.44,8.2-15.5,11.86-.46-.18-.9-.35-1.33-.53.98-2.26,2.22-4.29,3.53-6.07,1.37.93,2.19,1.55,2.19,1.55-.39-.91-.85-1.77-1.37-2.61,3.3-4.16,6.66-6.61,6.66-6.61-3.13,1.65-5.77,3.22-8.01,4.68-1.01-1.31-2.15-2.51-3.34-3.61.77-.71,1.22-1.05,1.22-1.05,0,0-.55.3-1.43.86-4.9-4.44-10.58-7.08-11.75-7.59,0,0,0-.02,0-.02,14.64,5,25.51,3.22,25.51,3.22-19.26-4.81-22.78-12.25-22.78-12.25,27.48,6.34,36.13,15.06,36.13,15.06-13.62-15.75-34.33-20.5-34.33-20.5,11.49,2.84,20.07,1.65,20.07,1.65-15.5-3.19-18.6-6.11-18.6-6.11,15.19-1.95,28.58,7.56,28.58,7.56-11.21-9.26-18.63-12.43-21.88-13.48,15.24,3.78,30.37.79,30.37.79-23.89-3.09-30.67-6.1-30.67-6.1,15.56-5.14,30.93.77,30.93.77-11.51-7.89-29.23-8.25-29.23-8.25,14.36-3.77,28.73,1.38,28.73,1.38-13.77-7.2-22.57-9.1-27.05-9.55.39-.65.77-1.31,1.16-1.96.87-.17,1.82-.28,2.85-.26,11.5.27,17.1,2.25,17.1,2.25,0,0-8.5-4.2-17.67-5.64,6.59-10.42,13.75-20.46,19.24-31.6,18.23-36.94-3.35-57.91-8.45-93.54-2.07-14.48.53-30.51,9.94-40.99Zm-33.13,235.65c-.82-.39-1.57-.77-2.27-1.14.03-.05.05-.1.08-.15,1.75-2.69,3.38-4.76,4.73-6.31,1.45.78,2.78,1.55,3.94,2.27-2.92,2.05-5,3.85-6.48,5.33Zm9.56,10.55c.3-1.93.85-3.72,1.54-5.4,1.59.36,2.91.63,3.84.82-3.68,3.54-5.37,4.58-5.37,4.58Zm-4.59-6.87c.34.09.67.17,1,.26-1.21,1.53-1.88,2.56-1.88,2.56.23-.97.54-1.9.88-2.81Zm-8.25-2.35c.53.17,1.07.34,1.61.5-1.37,1.66-1.74,2.6-1.74,2.6,0,0-.26-1.36.13-3.1Zm-2.63-4.61c-.2-1.11-.37-2.24-.51-3.36l3.66,1.96c-.72.66-1.43,1.36-2.1,2.08-.38-.23-.72-.46-1.04-.68Zm3.47-1.71l-4.3-4.78c-.05-.63-.07-1.25-.1-1.88,2.96.95,5.8,2.21,8.31,3.5-1.24.9-2.59,1.97-3.92,3.16Zm48.32,44.63s-.98-.76-1.53-1.94c.6-.43,1.19-.88,1.78-1.33-.68,2.19-.25,3.28-.25,3.28Zm-4.84-3.56c-4.11,1.42-5.2.28-5.2.28l6.43-3.32c-.52,1-.97,2.06-1.22,3.04Zm78.55,70.12c.7-.12,1.4-.25,2.1-.38-1.42,1.18-2.16,1.51-2.16,1.51,0-.39.03-.76.06-1.12Zm-4.11-2.66c.08-.74.22-1.44.41-2.11.46.04.94.08,1.48.13-.63.81-1.11,1.55-1.43,2.12-.16-.04-.32-.09-.47-.13Zm2.1-2.25c-.5-.29-.95-.55-1.38-.79.43-1.15.99-2.16,1.55-3.02,1.39.03,2.7.16,3.83.32-1.72,1.03-3.03,2.31-4,3.49Zm-4.36-2.34c-.47-.23-.97-.47-1.54-.73,1.08-.33,2.21-.52,3.32-.63-.68.47-1.27.93-1.78,1.36Zm-31.34-42.45c2.3-1.46,4.94-2.29,6.82-2.74-1.54.92-3.74,2.34-5.4,3.9-.47-.4-.94-.78-1.42-1.17Zm49.99,69.6c.18-.08.36-.14.54-.21-.06.1-.13.22-.19.32-.12-.04-.22-.08-.35-.12Zm58.4,28.01c-1.13-1.29-2.06-2.67-2.86-4.06.4-.75.78-1.51,1.15-2.27.74,3.79,1.71,6.33,1.71,6.33Zm-11.14-.66c-.04-.1-.08-.21-.11-.31l2.6-3.15c.04.91.12,1.72.21,2.47-1.36.93-2.25,1.03-2.69,1Zm2.45-4.45l-3.33,1.92c-.22-.71-.42-1.37-.6-2.01,1.27-2.01,2.74-3.83,4.07-5.32-.15,2.04-.19,3.84-.15,5.41Zm-5.6,3.23l-.15.09c.04-.1.09-.19.14-.29,0,.07.01.13.02.2Zm-36.02-15.04c-.41-2.19-.47-4.32-.31-6.32.92-.28,1.8-.58,2.62-.86-1.24,3.29-1.8,6.14-2.01,7.43-.1-.09-.2-.17-.31-.26Zm-5.26-4.74c-.09-.08-.18-.17-.26-.25.14-.02.27-.04.41-.07-.05.11-.1.22-.14.32Zm1.27-2.65c-2.43-.24-3.13-1.05-3.32-1.4.01-.06.03-.12.04-.17,1.64-.09,2.5-.13,4.17-.16-1.51-.68-2.45-1.06-3.73-1.52.1-.35.2-.67.3-.97,1.9-.52,3.87-.62,5.43-.58-1.18,1.77-2.14,3.38-2.89,4.81Zm103.21,6.5c-1.01-.74-2.1-1.31-3.19-1.76.35-1.13.66-2,.84-2.5.75,2.25,1.66,3.55,2.34,4.26Zm15.09-15.83c3.37,1.12,4.37,1.99,4.37,1.99-1.49.51-2.9.76-4.21.85-.18-1.2-.18-2.24-.15-2.85Zm2.15,5.87c-.04.11-.07.22-.11.33-.25.07-.51.13-.76.18-.11-.2-.21-.41-.31-.62.46.06.85.09,1.17.11Zm-12.53,5.5c-.02-.18-.03-.36-.05-.54.5.68.98,1.2,1.33,1.56-.43-.38-.86-.71-1.28-1.01Zm-5.51,7.3c-1.29.12-2.49.09-3.6-.05.19-.86.39-1.66.59-2.42,2.37,1.57,3,2.47,3,2.47Zm-2.24,3.47c-.69.07-1.36.08-2.01.06.03-.22.06-.44.1-.66,1.13.43,1.91.6,1.91.6Zm-2.22,4.09s-.09.05-.14.07c0-.04,0-.08,0-.12.04.01.09.03.13.05Zm-5.29.04c-.27-.09-.5-.18-.72-.26-.1-1.62-.29-3.14-.53-4.52.71.78,1.39,1.44,2.02,1.99-.32,1.02-.58,1.96-.77,2.79Zm-.69.38c.16.13.33.26.51.4-.17.79-.28,1.42-.35,1.89-.04.02-.08.03-.11.05,0-.8-.01-1.58-.05-2.34Zm42.19-44.82c2.77-.07,4.02-1.08,4.02-1.08,0,0-1.14,2.14-3,2.94-.08.03-.14.06-.22.09-.35-.68-.6-1.35-.8-1.95Zm2.51,4.39c-.06-.06-.12-.12-.18-.19.11-.03.2-.08.31-.12-.04.1-.08.21-.13.31Zm-.49-10.45c-.11-.11-.2-.19-.27-.27.67-.18,1.08-.32,1.08-.32-.27.21-.54.4-.81.59Zm-1.86,13c-1.09-1.11-2.25-1.94-3.36-2.57.64.09,1.34.15,2.04.18.55,1.46,1.32,2.39,1.32,2.39Z"/>
                <path class="cls-24" d="m405.62,427.39s0-.05.02-.08c0,0,0,.03-.02.08Z"/>
                <path class="cls-24" d="m425.83,364.53s-.07-.03-.1-.04c0,0,.04.02.1.04Z"/>
              </g>
              <g>
                <path class="cls-8" d="m234.09,591.51s3.76-23.55-2.29-46.16c0,0,8.13,11.82,7.69,46.16,0,0,2.65-17.87,13.37-31.55,0,0-11.46,19.9-5.43,34.29,0,0,3.79-3.43,5.01-19.87,0,0,.9,6.09,0,19.87,0,0,3.18-32.89,15.84-52.08,0,0-10.54,21.93-9.73,52.08,0,0,8.72-3.2,8.91-37.4,0,0,6.33,16.84,1.15,37.4,0,0,4.94-23.64,14.36-31.52,0,0-7.74,19.87-7.74,31.52l6.52-10.28-2.44,10.28s10.71-8.33,12.56-41.11c0,0,4.54,21.24-6.45,45.91,0,0-66.84,26.35-74.5-2.86-5.27-20.07.69-31.83.69-31.83,0,0-1.52,10.26,2.22,23.44,1.26,4.42,4.02,9.21,4.02,9.21,0,0-6.98-24.87,2.49-48.86,0,0-2.22,30.78,5.54,44.15,0,0-4.16-24.48.92-38.87,0,0-2.22,23.94,7.28,38.08Z"/>
                <path class="cls-8" d="m160.79,581.71s7.23-17.75,4.69-36.61c0,0,6.21,10.79.62,37.63,0,0,5.29-13.51,17.87-22.21,0,0-14.24,13.44-10.49,25.85,0,0,4.23-1.97,7.9-14.63,0,0-.03,4.95-2.98,15.58,0,0,8.06-25.18,23.38-37.84,0,0-13.64,15.2-17.37,38.99,0,0,9.05-.86,14.37-27.64,0,0,3.69,14.39-4.48,29.53,0,0,8.41-17.6,18.84-22,0,0-10.58,14.12-12.33,23.25l7.94-6.83-3.94,7.6s11.77-4.51,18.51-29.86c0,0,1.27,17.5-13.23,34.77,0,0-69.6,8.07-72.74-16.26-2.16-16.72,5.46-24.82,5.46-24.82,0,0-3.04,7.76-1.34,18.79.57,3.7,2.56,7.98,2.56,7.98,0,0-3.12-20.81,9.79-37.82,0,0-6.8,23.71-1.19,35.65,0,0-.41-19.97,6.74-30.29,0,0-5.77,18.35,1.43,31.22Z"/>
                <path class="cls-8" d="m105.69,547.07s14.41-12.64,20.58-30.64c0,0,.72,12.43-16.29,33.93,0,0,10.78-9.71,25.92-11.86,0,0-18.75,5.64-20.95,18.42,0,0,4.67.13,13.62-9.55,0,0-2.24,4.41-9.64,12.59,0,0,18.48-18.91,37.85-23.37,0,0-19.01,7.49-32.99,27.08,0,0,8.48,3.28,25.22-18.28,0,0-3.14,14.52-17.23,24.4,0,0,15.4-11.97,26.7-11.24,0,0-15.78,7.89-21.44,15.27l10.16-2.55-6.93,5.03s12.55,1.24,29.92-18.42c0,0-6.7,16.22-27.4,25.17,0,0-65.85-23.94-57.76-47.11,5.56-15.92,16-19.75,16-19.75,0,0-6.19,5.57-9.61,16.2-1.15,3.57-1.28,8.28-1.28,8.28,0,0,6.53-20,25.69-29.44,0,0-16.7,18.16-17.02,31.35,0,0,8.57-18.04,19.59-24.07,0,0-13.38,13.82-12.7,28.55Z"/>
                <path class="cls-8" d="m56.41,492.12s17.88-6.89,29.89-21.66c0,0-3.61,11.92-26.99,26.23,0,0,13.46-5.4,28.42-2.19,0,0-19.55-1.17-26.02,10.07,0,0,4.34,1.73,16.08-4.26,0,0-3.63,3.36-13.39,8.49,0,0,23.87-11.38,43.58-8.88,0,0-20.42.47-40.31,14.05,0,0,6.83,6,29.98-8.46,0,0-7.96,12.55-24.59,16.96,0,0,18.58-5.93,28.94-1.34,0,0-17.54,1.96-25.39,6.94l10.42,1.11-8.24,2.33s11.35,5.49,34.44-6.97c0,0-11.88,12.92-34.4,14.18,0,0-53.55-45.18-37.97-64.14,10.71-13.03,21.82-13.02,21.82-13.02,0,0-7.73,3.1-14.61,11.89-2.31,2.95-4.06,7.33-4.06,7.33,0,0,13.02-16.53,34.26-18.78,0,0-21.93,11.29-26.79,23.55,0,0,14.27-13.98,26.69-15.83,0,0-17.32,8.36-21.77,22.42Z"/>
                <path class="cls-8" d="m31.87,427.13s19.05-2.07,34.45-13.26c0,0-6.55,10.59-32.82,18.42,0,0,14.4-1.76,28.03,5.18,0,0-18.59-6.15-27.73,3.05,0,0,3.75,2.79,16.63,0,0,0-4.37,2.32-15.13,4.77,0,0,25.99-4.87,44.4,2.61,0,0-19.86-4.79-42.56,3.22,0,0,5.06,7.55,31.15-.48,0,0-10.91,10.08-28.12,10.08,0,0,19.48-.96,28.31,6.13,0,0-17.45-2.61-26.32.19l9.78,3.75-8.56.14s9.56,8.22,35.07,2.11c0,0-14.8,9.43-36.88,4.87,0,0-40.16-57.42-20.23-71.74,13.69-9.84,24.44-6.98,24.44-6.98,0,0-8.27,1.01-17.17,7.74-2.99,2.26-5.8,6.04-5.8,6.04,0,0,16.83-12.63,37.94-9.35,0,0-24.1,5.27-31.94,15.88,0,0,17.38-9.84,29.86-8.45,0,0-18.89,3.63-26.79,16.08Z"/>
                <path class="cls-8" d="m310.41,572.82s-2.8-21.46-20.65-35.02c0,0,17.14,3.46,29.14,31.07,0,0-2.43-16.14,9.35-34.84,0,0-10.64,24.18,4.13,31.22,0,0,4.68-5.49.53-19.45,0,0,3.66,4.19,7.34,15.79,0,0-16.07-28.32-3.27-52.82,0,0,.46,24.98,12.87,48.35,0,0,12.52-8.91.18-36.23,0,0,16.17,8.76,15.63,28.88,0,0-.97-22.4,10.92-35.54,0,0-4.81,21.44-.51,30.7l6.44-12.93-.04,9.95s13.75-14.44,4.54-41.85c0,0,14.98,13.57,6.83,41.2,0,0-49.75,77.84-118.08,52.12-18.55-6.98-10.67-25.81-10.67-25.81,0,0,1.4,9.27,12.14,17.01,3.61,2.6,9.72,4.39,9.72,4.39,0,0-20.16-14.67-14.13-40.65,0,0,7.89,26.09,25.02,31.05,0,0-15.58-16.42-12.91-31.57,0,0,5.36,20.65,25.5,24.95Z"/>
                <path class="cls-8" d="m406.12,515s-10.88-17.18-30.5-23.7c0,0,14.98-1.72,35.64,18.12,0,0-8.44-12.83-6.65-31.62,0,0,1.33,23.07,15.88,24.97,0,0,1.5-5.85-7.43-16.39,0,0,4.59,2.51,12.19,11.22,0,0-17.17-21.85-16.91-45.76,0,0,3.44,23.26,22.71,39.45,0,0,6.33-10.81-14.48-30.32,0,0,16.35,2.97,24.04,19.93,0,0-9.81-18.45-5.69-32.63,0,0,4.84,19.21,11.99,25.79l-.12-12.53,3.99,8.33s5.07-15.77-13.29-36.18c0,0,17.35,7.3,22.04,32.59,0,0-47.34,83.89-72.55,75.31-17.32-5.9-18.87-18.69-18.87-18.69,0,0,4.85,7.37,16.49,10.94,3.91,1.2,9.47,1.05,9.47,1.05,0,0-21.9-6.84-27.61-30.16,0,0,16.78,19.67,32.36,19.21,0,0-18.97-9.52-22.97-22.9,0,0,12.58,15.81,30.28,13.99Z"/>
                <path class="cls-8" d="m457.47,429.87s-16.28-12.19-36.93-11.31c0,0,13.38-6.93,39.75,4.27,0,0-12.45-8.99-17.46-27.19,0,0,9.44,21.09,23.72,17.7,0,0-.68-6-12.78-12.68,0,0,5.19.72,15.39,6.15,0,0-23.81-14.32-32.07-36.76,0,0,11.49,20.52,35.25,28.8,0,0,2.07-12.36-24.31-23.19,0,0,16.34-3.04,29.56,10.08,0,0-15.73-13.76-16.92-28.48,0,0,11.35,16.23,20.37,19.84l-4.56-11.67,6.68,6.37s-.87-16.54-25.29-29.1c0,0,18.81.66,32.18,22.62,0,0-14.43,95.24-41.04,96.18-18.28.65-24.29-10.76-24.29-10.76,0,0,7.15,5.16,19.3,4.37,4.08-.27,9.23-2.38,9.23-2.38,0,0-22.9,1.39-36.53-18.38,0,0,22.68,12.42,37.07,6.45,0,0-21.12-2.16-29.61-13.24,0,0,17.38,10.3,33.27,2.31Z"/>
              </g>
            </g>
            <path class="cls-7" d="m462.05,186.33l.31-.13-2.52.68.23.03-3.54-1.46.16.15-1.29-2.21c-.17-.43,0-1.76.29-2.14l1.79-1.79-.2.11,3.85-.5-.23-.03,2.21,1.29c-2.09-1.62-3.78-4.28-5.31-6.43-1.79-2.52-3.43-5.14-4.97-7.82-2.97-5.19-5.53-10.6-7.95-16.06-4.98-11.21-9.44-22.73-15.8-33.26-7.07-11.7-16.7-21.15-27.24-29.72-11.81-9.61-23.94-18.84-35.93-28.24-12.23-9.58-24.41-19.23-36.7-28.74-5.53-4.28-11.15-8.49-17.38-11.71-6.55-3.4-13.53-5.53-20.82-6.6-14.79-2.16-30.1-1.55-44.98-.86s-30.59,2.58-45.46,4.38c-5.89.71-12.53.49-18.67,1.19s-12.44,2.09-16.43,6.99c-1.59,1.95-2.54,4.3-4.1,6.26-.25.32-.75.76-1,1.08-.74.66-.75.73-.05.21.18.2-.04.21-.66.05-1.22-.3-3.05-.17-4.29-.08-7.33.5-13.14,8.41-10.21,15.55.94,2.3,2.83,3.98,5.49,3.58,2.45-.37,4.31-2.37,4.34-4.91.06-6.39,7.31-10.87,13.04-8.92l1.33-9.82c-13.79-1.46-22.66,11.14-29.43,21.11-3.06,4.5-6.39,9.17-11.34,11.73-2.51,1.29-4.58,2.37-6.02,4.96-1.23,2.21-1.61,4.71-2.2,7.14s-.77,2.64-2.62,4.15c-2.57,2.11-4.05,4.38-4.23,7.74-.02.44-.03.88-.04,1.31-.03,1.14-.3.41.05-.11-.15.23-.02.65-.18.89-.06.08-.11.33-.13.43-.18,1.09-.2-.87.25-.53.03.02-.29.56-.31.59-.65,1.13.16-.4.26-.27.06.07-1.05,1.06-1.13,1.13-.22.19-.47.36-.68.55-.26.24,1.21-.91.26-.2-.87.65-1.74,1.31-2.59,1.99-12.16,9.67-18.71,25.77-24.33,39.72-1.06,2.63-1.98,5.36-3.15,7.92-.43.95-.9,1.89-1.44,2.79-.15.25-.31.49-.46.75-.69,1.17.11.03-.35.5-.19.2-.53.46-.67.69l-.23.2c.64-.47.75-.57.33-.27,0,0-.65.36-.69.39,1-.8.89-.26.49-.21-.46.06-1.02.23-1.48.35,1.71-.46-.28-.02-.85.02-3.19.22-6.36.58-9.37,1.73-5.4,2.07-9.87,5.43-14.28,9.12-.27.23-.54.46-.82.68.97-.78-.17.11-.31.21-.73.51-1.45,1.02-2.18,1.52-2,1.35-4.05,2.65-6.09,3.95-4.15,2.64-8.32,5.26-12.32,8.12-6.55,4.68-13.61,10.53-12.61,19.5.88,7.87,6.99,13.79,12.26,19.15,1.36,1.38,2.72,2.76,4.03,4.18.57.61,1.13,1.23,1.68,1.86.32.37.64.75.96,1.13.21.25.41.51.62.76-.28-.37-.25-.33.1.14,1.02,1.39,1.92,2.84,2.72,4.37.06.11.62,1.48.23.46.16.41.31.84.44,1.26.11.35.2.71.29,1.07.06.24.27,1.79.15.63.09.9.1,1.8.02,2.71-.12,1.48.23-.96-.1.53-.05.22-.1.43-.15.65-.42,1.8-.96,3.58-1.51,5.35-1.34,4.29-2.84,8.53-4.33,12.77-3.12,8.87-6.55,17.72-8.94,26.82-1.43,5.46-2.01,11.16-2.73,16.74-.96,7.46-1.7,14.95-2.25,22.46-1.13,15.36-1.5,30.77-1.59,46.17-.09,15.23-.07,30.47.24,45.7.3,15.03,1.2,30.1,3.93,44.91,4.51,24.41,15.04,48.91,34.04,65.56,4.52,3.96,9.45,7.46,14.74,10.31,5.66,3.06,10.72-5.57,5.05-8.63-20.55-11.09-33.72-31.9-40.33-53.81-8.32-27.55-7.54-56.87-7.66-85.35-.13-29.97.01-60.14,4.19-89.88.66-4.67,1.34-9.27,2.66-13.8s2.71-8.56,4.18-12.8c3.01-8.69,6.32-17.31,8.95-26.12,1-3.33,1.91-6.77,1.6-10.28-.36-4.06-1.87-7.88-4.1-11.27-4.33-6.59-10.49-11.57-15.56-17.53-.3-.35-.59-.71-.88-1.06-.91-1.13.33.47-.17-.23-.46-.64-.91-1.29-1.32-1.97-.35-.59-.67-1.19-.97-1.8-.57-1.18.29.97-.09-.26-.15-.49-.28-.98-.42-1.47-.32-1.21.01,1.08-.04-.16-.01-.25-.03-.5-.03-.75,0-.38.02-.76.06-1.14-.14,1.33.03.03.11-.21.14-.39.23-.79.39-1.18-.08.21-.42.84.03,0,.22-.41.46-.81.7-1.21.34-.58-.61.56.34-.44,5.81-6.12,13.94-10.39,21.28-15.13,3.49-2.26,6.79-4.64,9.98-7.3,3.53-2.94,7.13-5.19,11.05-6.18.75-.19,1.5-.33,2.26-.44-1.52.23.36,0,.67-.03,1.49-.12,2.97-.18,4.46-.42,2.8-.45,5.28-1.87,7.14-4.02,3.32-3.83,4.89-8.84,6.7-13.48,2.21-5.65,4.61-11.23,7.34-16.66,1.93-3.85,4.02-7.63,6.41-11.22.41-.61.82-1.22,1.25-1.82.22-.31,1.66-2.21.88-1.21.8-1.01,1.63-2,2.51-2.95,1.28-1.38,2.66-2.63,4.11-3.83.15-.13.32-.24.47-.37.64-.54-1.07.8-.42.32.24-.17.47-.35.7-.53.79-.6,1.6-1.18,2.36-1.83,2.7-2.31,3.95-5.3,4.28-8.79.03-.37.06-.74.08-1.11,0-.18.03-.38.01-.56-.11-1.07.24.36-.18.31.3.03,1.87-1.51,2.27-1.86,1.13-.97,2.1-2.16,2.8-3.48,1.12-2.12,1.58-4.42,2.11-6.74.21-.92.46-1.81.76-2.69-.21.61.63-.34,0,.02.41-.42.47-.47.18-.15.39-.19.78-.36,1.18-.52,11.18-5.21,15.25-17.22,23.26-25.67,3.66-3.86,7.95-6.87,13.47-6.29,2.44.26,4.64-2.1,4.91-4.34.3-2.55-1.17-4.67-3.58-5.49-12.08-4.11-25.59,6-25.7,18.56l9.82-1.33c-.51-1.24-.43-2.4.61-2.84.84-.35,2.51,0,3.55.02,1.56.03,3.15-.09,4.63-.61,3.11-1.09,5.35-3.98,7.1-6.64.48-.73.91-1.5,1.35-2.26.24-.42.48-.83.75-1.24.34-.47.36-.52.06-.15.21-.26.44-.5.67-.74,3.13-2.79,9.08-3.1,13.52-3.36,6.07-.35,12.05-.55,18.08-1.4,15.19-2.14,30.52-3.42,45.85-3.96,7.78-.27,15.58-.38,23.36-.22,7.09.15,14.2.57,21.11,2.28,14.17,3.51,25.34,13.29,36.57,22.09,12.37,9.69,24.74,19.39,37.11,29.08s24.04,18.08,35.02,28.25c4.93,4.57,9.57,9.5,13.38,15.06,3.53,5.15,6.49,10.66,9.19,16.29,5.97,12.47,10.62,25.59,17.51,37.61,1.66,2.9,3.45,5.73,5.42,8.44s4.41,6.84,7.43,8.6c3.96,2.32,8.14-1.14,8.29-5.22.18-4.83-4.27-7.01-8.35-5.25-2.48,1.07-3.04,4.71-1.79,6.84,1.5,2.56,4.35,2.87,6.84,1.79h0Z"/>
            <g class="cls-13">
              <circle class="cls-3" cx="106.33" cy="186.48" r="17.52"/>
              <circle class="cls-3" cx="83.06" cy="168.96" r="17.52" transform="translate(-95.15 108.22) rotate(-45)"/>
              <circle class="cls-3" cx="84.78" cy="197.23" r="17.52"/>
              <circle class="cls-3" cx="63.75" cy="171.67" r="11.63"/>
              <path class="cls-3" d="m31.79,179.71c0,6.42,5.21,11.63,11.63,11.63s11.63-5.21,11.63-11.63-5.21-11.63-11.63-11.63-11.63,5.21-11.63,11.63Z"/>
              <path class="cls-3" d="m20.16,191.34c0,6.42,5.21,11.63,11.63,11.63s11.63-5.21,11.63-11.63-5.21-11.63-11.63-11.63-11.63,5.21-11.63,11.63Z"/>
              <circle class="cls-3" cx="46.7" cy="198.11" r="11.63"/>
              <circle class="cls-3" cx="65.54" cy="188.88" r="17.21"/>
            </g>
            <g class="cls-32">
              <path class="cls-3" d="m353.65,150.28c0,11.03-10.06,19.97-22.47,19.97s-22.47-8.94-22.47-19.97,10.06-19.97,22.47-19.97,22.47,8.94,22.47,19.97Z"/>
              <path class="cls-3" d="m383.5,130.31c0,11.03-10.06,19.97-22.47,19.97s-22.47-8.94-22.47-19.97,10.06-19.97,22.47-19.97,22.47,8.94,22.47,19.97Z"/>
              <ellipse class="cls-3" cx="358.82" cy="162.53" rx="22.47" ry="19.97"/>
              <path class="cls-3" d="m400.71,133.4c0,7.32-6.68,13.25-14.91,13.25s-14.91-5.93-14.91-13.25,6.68-13.25,14.91-13.25,14.91,5.93,14.91,13.25Z"/>
              <path class="cls-3" d="m426.79,142.56c0,7.32-6.68,13.25-14.91,13.25s-14.91-5.93-14.91-13.25,6.68-13.25,14.91-13.25,14.91,5.93,14.91,13.25Z"/>
              <path class="cls-3" d="m441.71,155.81c0,7.32-6.68,13.25-14.91,13.25s-14.91-5.93-14.91-13.25,6.68-13.25,14.91-13.25,14.91,5.93,14.91,13.25Z"/>
              <path class="cls-3" d="m422.58,163.54c0,7.32-6.68,13.25-14.91,13.25s-14.91-5.93-14.91-13.25,6.68-13.25,14.91-13.25,14.91,5.93,14.91,13.25Z"/>
              <path class="cls-3" d="m405.57,153.01c0,10.83-9.88,19.61-22.07,19.61s-22.07-8.78-22.07-19.61,9.88-19.61,22.07-19.61,22.07,8.78,22.07,19.61Z"/>
            </g>
          </g>
          <path class="cls-3" d="m168.77,69.02c.84-.99,1.71-1.97,2.59-2.93,1.03-1.12,1.82-2.44,2.7-3.67.36-.5.71-.99,1.08-1.48.2-.27.41-.54.61-.81.08-.11.16-.22.25-.32.4-.53-.47.61.03-.04.8-1.02,1.61-2.02,2.45-3.01,3.38-3.99,6.71-7.97,10.52-11.56,2.13-2.01,4.36-3.91,6.68-5.71l-.86.67c1.56-1.2,3.12-2.41,4.67-3.62l-.85.66c1.88-1.45,3.81-2.82,5.8-4.11s3.84-2.7,5.82-3.96c1.38-.88,1.98-2.55,1.34-4.08-.59-1.4-2.31-2.44-3.85-1.89-2.01.72-3.99,1.52-5.95,2.37-1.74.75-3.38,1.83-4.99,2.82-1.86,1.15-3.71,2.35-5.42,3.71-1.52,1.2-2.99,2.47-4.42,3.78-5.95,5.44-11.43,11.68-15.51,18.64-1.14,1.95-2.21,3.93-3.22,5.95-.59,1.19-1.13,2.36-1.48,3.65-.3,1.09-.57,2.19-.83,3.29-.18.74.12,1.54.78,1.93.62.36,1.58.3,2.07-.27h0Z"/>
          <path class="cls-3" d="m432.71,294.83c-.12.82-.12,1.71.21,2.49.25.6.52,1.19.78,1.79.49,1.11.97,2.22,1.46,3.33s.95,2.12,1.52,3.15,1.14,2.02,1.71,3.04c1.14,2.02,2.28,4.05,3.42,6.07.29.51.57,1.01.86,1.52.43.77,1,1.42,1.6,2.05,1,1.06,1.92,2.1,3.19,2.86,1.05.62,2.4.61,3.45,0,.95-.56,1.82-1.79,1.69-2.95-.09-.84-.18-1.63-.5-2.41-.21-.52-.42-1.04-.63-1.55-.34-.84-.62-1.72-1.16-2.46-.34-.47-.69-.94-1.03-1.42-1.37-1.89-2.75-3.78-4.12-5.66-1.5-2.06-2.96-4.14-4.66-6.04-.76-.85-1.52-1.69-2.28-2.54-.93-1.04-1.81-2.15-3.22-2.55-.88-.25-2.14.31-2.28,1.3h0Z"/>
          <path class="cls-3" d="m38.15,512.34c1.19,1.27,2.34,2.57,3.45,3.9.56.67,1.11,1.34,1.65,2.02.22.28.46.56.67.86-.43-.58,0,0,.08.1.17.23.34.45.52.68,2.07,2.75,3.92,5.63,5.9,8.43,3.97,5.61,7.65,11.41,11.47,17.12,2.07,3.09,4.12,6.23,6.43,9.15,2,2.52,4.08,4.98,6.25,7.35,4.56,4.96,9.58,9.48,15.12,13.32,2.86,1.98,5.87,3.74,9.04,5.19,1.93.88,3.96,1.85,6.04,2.33,1.18.27,2.46.59,3.66.6.9.01,1.8-.03,2.7-.09,1.8-.11,3.65-1.23,4.08-3.11.4-1.78-.25-3.88-1.94-4.78-.62-.32-1.23-.66-1.83-1.01-.94-.55-1.95-.94-2.96-1.36l1.23.52c-1.14-.48-2.25-1.03-3.42-1.45-.8-.29-1.59-.6-2.38-.93l1.27.54c-4.8-2.03-9.25-4.76-13.37-7.93l1.07.83c-3.74-2.89-7.2-6.12-10.44-9.55s-6.31-7.2-9.38-10.87c-3.25-3.87-6.37-7.85-9.52-11.8s-6.36-8.03-9.91-11.71c-4.04-4.18-8.33-8.11-12.97-11.63-.82-.62-2.11-.2-2.68.54-.64.83-.55,1.97.16,2.73h0Z"/>
        </g>
      </g>
    </g>
  </g>
</svg>